<svg id="Camada_1" data-name="Camada 1" xmlns="http://www.w3.org/2000/svg" viewBox="0 0 1141.83441 667.46663"><defs><style>.cls-1{fill:#fff;}</style></defs><title>capa</title><path class="cls-1" d="M653.86447,628.91266A20.51429,20.51429,0,0,1,651.832,638.088c2.54736-2.87482,4.03247-7.27,4.03247-12.17535,0-8.30969-2.94727-13.25525-6.94727-13.25525V605.071l-2-.071v10.65741C650.9172,615.65741,653.86447,620.603,653.86447,628.91266Z"/><path class="cls-1" d="M645.20627,650.33331c-15.27979,0-23.06348-7.29712-23.06348-16.12079a7.93229,7.93229,0,0,1,.60083-2.97534,8.51433,8.51433,0,0,0-2.60083,5.97534c0,8.82367,7.78369,16.12079,23.06348,16.12079,13.61694,0,23.84131-3.72766,28.38477-12.20514C666.39621,647.4903,657.09494,650.33331,645.20627,650.33331Z"/><path class="cls-1" d="M486.26755,401.3335a28.558,28.558,0,0,1,11.64966-6.13226v-2.093a6.5747,6.5747,0,0,1-.57031-.52441A25.65063,25.65063,0,0,0,486.26755,401.3335Z"/><path class="cls-1" d="M526.9172,416.74292v92.58765c0,11.733-2.70312,21.32507-7.4812,27.9137,6.80029-6.35461,11.4812-17.531,11.4812-31.9137V412.74292c-1-17.46466-19-21.54169-19-21.54169v-.75415a10.25457,10.25457,0,0,0-3,2.66113v2.093S526.9172,399.27826,526.9172,416.74292Z"/><path class="cls-1" d="M563.5997,401.31433a28.40912,28.40912,0,0,1,11.3175-6.1131v-2.093a3.50942,3.50942,0,0,0-.42987-.5177A25.4779,25.4779,0,0,0,563.5997,401.31433Z"/><path class="cls-1" d="M504.6611,559.88971c-46.88428,0-52.7439-31.86926-52.7439-55.338V413.626c0-18.23889-18-22.42474-18-22.42474v-.75409a8.95484,8.95484,0,0,0-4,2.66107v2.093s19,4.18585,19,22.42474V508.5517c0,23.46875,5.60962,55.338,52.4939,55.338,23.95508,0,37.99512-7.29425,46.1355-17.97559C539.04269,554.37384,525.49069,559.88971,504.6611,559.88971Z"/><path class="cls-1" d="M931.43112,397.84729a26.3462,26.3462,0,0,1-6.38208,4.00378,7.21451,7.21451,0,0,1,1.29517,1.25452A19.20315,19.20315,0,0,0,931.43112,397.84729Z"/><path class="cls-1" d="M906.90207,488.96368s.13159.09436.34814.26465c.38965-.47034.78247-.98352,1.17261-1.53711A17.92562,17.92562,0,0,1,906.90207,488.96368Z"/><path class="cls-1" d="M909.90842,555.12677a10.70866,10.70866,0,0,1,1.94043,6.62946,18.56037,18.56037,0,0,1-3.65991,10.77258c4.1189-3.88989,7.15991-8.9436,7.15991-14.77258a12.6706,12.6706,0,0,0-.65283-4.10864c-.855-.07794-1.69971-.121-2.52393-.121Z"/><path class="cls-1" d="M891.74484,395.60266c-6.57056,0-11.90234,4.215-15.50586,9.20007a17.57245,17.57245,0,0,1,12.00586-5.20007c12.28735,0,18.75342,11.58234,18.75342,20.42163,0,8.68677-5.49634,15.23993-5.49634,15.23993l.96973,2.13367c9.64063,0,17.647-3.91949,21.48364-9.95416-4.32642,3.70782-10.68652,5.95416-17.98364,5.95416l-.96973-2.13367s5.49634-6.55316,5.49634-15.23993C910.49826,407.185,904.03219,395.60266,891.74484,395.60266Z"/><path class="cls-1" d="M902.09176,603.4762c-21.65894,0-50.11694-13.52112-50.11694-13.52112s-10.75757,13.52112-28.999,13.52112c-8.57178,0-12.56519-4.15637-13.32178-5.07245a26.71323,26.71323,0,0,1-3.73682,1.18518v2.629s3.83813,5.25824,13.469,5.25824c18.24146,0,29.04382-13.52112,29.04382-13.52112s28.48041,13.52112,50.13934,13.52112c14.91211,0,26.21506-6.08539,32.51413-14.63812C924.47778,599.226,914.55417,603.4762,902.09176,603.4762Z"/><path class="cls-1" d="M828.9172,421.79034V571.42c0,6.803-1.80713,12.03937-4.69019,16.054a26.63789,26.63789,0,0,0,8.69019-20.054V417.79034c0-22.91064-23-28.16882-23-28.16882V388.1228a10.039,10.039,0,0,0-4,2.86963v2.62909S828.9172,398.8797,828.9172,421.79034Z"/><path class="cls-1" d="M911.676,514h-1.06616s-3.46021-14-18.53711-14H870.9172v4h17.65552c15.0769,0,18.53711,14,18.53711,14h1.72974A7.0903,7.0903,0,0,0,911.676,514Z"/><path class="cls-1" d="M301.22873,492.60522c0-52.332-12.20264-94.75543-24.09424-94.75543-2.60425,0-5.23657,2.03558-7.76,5.76416a6.80652,6.80652,0,0,1,4.26-1.76416c11.8916,0,24.09424,42.42346,24.09424,94.75543,0,40.91193-7.458,75.76715-16.39478,89.03162C291.73434,577.20978,301.22873,538.76563,301.22873,492.60522Z"/><path class="cls-1" d="M277.13449,603.4762c-33.74341,0-61.09766-49.63867-61.09766-110.871,0-38.18164,10.63672-71.85315,26.8252-91.795-18.1377,19.22766-30.3252,54.92615-30.3252,95.795,0,61.2323,27.35425,110.871,61.09766,110.871,12.70288,0,24.49951-7.03656,34.27295-19.07581C298.86984,597.98083,288.35666,603.4762,277.13449,603.4762Z"/><path class="cls-1" d="M775.34469,508.531c0-53.79712-10.38428-77.87634-18.70679-77.87634-1.99683,0-4.16919,1.77216-6.31836,5.0943a4.84127,4.84127,0,0,1,2.81836-1.0943c8.32251,0,18.70679,24.07922,18.70679,77.87634,0,37.7851-5.82642,62.65631-12.24829,72.761C767.22873,579.7218,775.34469,553.12769,775.34469,508.531Z"/><path class="cls-1" d="M756.63791,603.019c-28.75806,0-52.06982-42.30371-52.06982-94.488,0-32.38226,8.97852-60.95532,22.6626-77.98084-15.63428,16.30414-26.1626,46.91119-26.1626,81.98083,0,52.18427,23.31177,94.488,52.06982,94.488,10.91235,0,21.03882-6.09595,29.407-16.5072C774.915,598.46851,766.0693,603.019,756.63791,603.019Z"/><path class="cls-1" d="M669.01364,421.45874c0-15.12421-8.45459-23.60895-18.10034-23.60895-3.37134,0-6.30981,2.12311-8.84229,5.99579a8.45656,8.45656,0,0,1,5.34229-1.99579c9.64575,0,18.10034,8.48474,18.10034,23.60895a33.30941,33.30941,0,0,1-5.165,18.02081C664.73947,439.89124,669.01364,431.34442,669.01364,421.45874Z"/><path class="cls-1" d="M688.4465,411.22369s.219.27454.54712.77563a28.971,28.971,0,0,0,3.18384-3.69843A21.90831,21.90831,0,0,1,688.4465,411.22369Z"/><path class="cls-1" d="M654.644,603.24377l-7.31519.02747c-32.07373-3.36938-57.5144-51.61871-57.5144-110.666,0-38.18134,10.637-71.8526,26.82568-91.79462-18.1377,19.22772-30.32568,54.92609-30.32568,95.79462,0,59.0473,25.44067,107.29663,57.5144,110.666l7.31519-.02747C653.75054,607.24377,654.644,603.24377,654.644,603.24377Z"/><path class="cls-1" d="M667.591,450.77142c-8.95117,0-11.59912-2.24921-11.85742-2.49036a5.86975,5.86975,0,0,1-3.04028,1.004l-.48486,2.9718s2.42529,2.51459,11.88257,2.51459c5.769,0,14.00781-4.4798,19.36377-11.7558C678.41574,447.8974,672.21139,450.77142,667.591,450.77142Z"/><path class="cls-1" d="M656.92648,585.35352c5.78979-4.36432,9.62231-16.32416,9.918-40.25751a32.99375,32.99375,0,0,0-3.481.963C663.36349,566.57373,660.92331,578.85486,656.92648,585.35352Z"/><path class="cls-1" d="M199.42062,404.88a17.493,17.493,0,0,1-5.458,2.778,8.74213,8.74213,0,0,1,1.12109,1.8205A13.044,13.044,0,0,0,199.42062,404.88Z"/><path class="cls-1" d="M157.44113,434.3244l-.481,4.08s5.6106,4.07983,15.22876,4.07983c7.00879,0,15.24683-4.21527,19.20337-10.27307a24.974,24.974,0,0,1-15.70337,6.27307c-9.61816,0-15.22876-4.07983-15.22876-4.07983l.16016-1.35992A23.1643,23.1643,0,0,1,157.44113,434.3244Z"/><path class="cls-1" d="M152.28512,396.32471c-8.54907,0-15.03735,3.43372-19.02124,9.35083,3.90259-3.43329,9.13623-5.35083,15.52124-5.35083,10.57935,0,22.60181,6.34656,22.60181,18.13318a13.53961,13.53961,0,0,1-2.05737,7.24811,14.497,14.497,0,0,0,5.55737-11.24811C174.88693,402.67126,162.86447,396.32471,152.28512,396.32471Z"/><path class="cls-1" d="M147.43185,602.58923c-27.89233,0-54.3418-15.86658-54.3418-42.61292A32.87494,32.87494,0,0,1,99.46628,540.425a32.61477,32.61477,0,0,0-9.87622,23.55133c0,26.74634,26.44946,42.61292,54.3418,42.61292,18.738,0,37.66064-7.94293,49.13892-22.50623C181.46481,596.092,164.37448,602.58923,147.43185,602.58923Z"/><path class="cls-1" d="M195.07809,387.56683c-.37354-.39606-.60791-.6153-.60791-.6153l-2.04346,1.2467a8.81507,8.81507,0,0,1-1.14331,3.97229A11.79248,11.79248,0,0,0,195.07809,387.56683Z"/><path class="cls-1" d="M134.7944,538.5899s.04028-.38947.0625-.93439a49.68328,49.68328,0,0,0-4.18677,4.69177A41.79259,41.79259,0,0,1,134.7944,538.5899Z"/><path class="cls-1" d="M162.56051,581.96533a32.68741,32.68741,0,0,0,9.87793-23.349c0-42.61285-73.53369-87.03906-73.53369-127.38538a46.16426,46.16426,0,0,1,10.28931-28.70288c-8.32422,8.56458-13.78931,19.98914-13.78931,32.70288,0,40.34631,73.53369,84.77252,73.53369,127.38538A32.832,32.832,0,0,1,162.56051,581.96533Z"/><path class="cls-1" d="M1010.33517,434.3244l-.48047,4.08s5.60962,4.07983,15.22778,4.07983c7.00928,0,15.248-4.21545,19.20435-10.27338a24.97515,24.97515,0,0,1-15.70435,6.27338c-9.61816,0-15.22778-4.07983-15.22778-4.07983l.16016-1.36A23.17468,23.17468,0,0,1,1010.33517,434.3244Z"/><path class="cls-1" d="M1052.31418,404.88043a17.49047,17.49047,0,0,1-5.457,2.77753,8.74331,8.74331,0,0,1,1.12109,1.82031A13.04491,13.04491,0,0,0,1052.31418,404.88043Z"/><path class="cls-1" d="M1005.17868,396.32471c-8.54834,0-15.03638,3.43359-19.02,9.35052,3.90234-3.433,9.13574-5.35052,15.52-5.35052,10.57983,0,22.60278,6.34656,22.60278,18.13318a13.53874,13.53874,0,0,1-2.05737,7.24786,14.496,14.496,0,0,0,5.55737-11.24786C1027.78146,402.67126,1015.75851,396.32471,1005.17868,396.32471Z"/><path class="cls-1" d="M1000.32541,602.58923c-27.89185,0-54.34155-15.86658-54.34155-42.61292a32.87409,32.87409,0,0,1,6.376-19.551,32.61494,32.61494,0,0,0-9.876,23.551c0,26.74634,26.44971,42.61292,54.34155,42.61292,18.73877,0,37.66162-7.943,49.14014-22.50647C1034.35959,596.09192,1017.26877,602.58923,1000.32541,602.58923Z"/><path class="cls-1" d="M1015.45407,581.96539a32.68765,32.68765,0,0,0,9.87817-23.34906c0-42.61285-73.53345-87.03906-73.53345-127.38538a46.163,46.163,0,0,1,10.28955-28.70288c-8.32446,8.56458-13.78955,19.98914-13.78955,32.70288,0,40.34631,73.53345,84.77252,73.53345,127.38538A32.83237,32.83237,0,0,1,1015.45407,581.96539Z"/><path class="cls-1" d="M987.68869,538.5899s.04028-.38959.0625-.93457a49.66616,49.66616,0,0,0-4.188,4.69281A41.80893,41.80893,0,0,1,987.68869,538.5899Z"/><path class="cls-1" d="M405.18173,401.73639a35.49321,35.49321,0,0,1,14.73547-8.11487v-2.62909a.48885.48885,0,0,0-.10822-.18573A32.82056,32.82056,0,0,0,405.18173,401.73639Z"/><path class="cls-1" d="M555.26681,563.97119c3.947-3.68622,6.2561-7.843,6.488-12.38464-1.03638-.73352-1.69727-1.108-1.69727-1.108l-1.94019,2.13361A15.59533,15.59533,0,0,1,555.26681,563.97119Z"/><path class="cls-1" d="M358.9172,421.79034v157.3255q1.5-.92322,3-1.78491V417.79034c0-22.91064-23-28.16882-23-28.16882v-1.49884a10.03842,10.03842,0,0,0-4,2.86975v2.62909S358.9172,398.8797,358.9172,421.79034Z"/><path class="cls-1" d="M515.70358,608.35291c-50.926,0-89.24146-18.36414-128.52686-18.36414-30.07056,0-50.68311,15.31622-50.68311,15.31622l-2.91016-1.8288a47.84034,47.84034,0,0,1,5.30981-7.90887,53.99412,53.99412,0,0,0-8.80981,11.90887l2.91016,1.8288s20.61255-15.31622,50.68311-15.31622c39.2854,0,77.60083,18.36414,128.52686,18.36414,30.6936,0,48.4751-8.43182,56.82837-19.65936C559.62472,601.86542,542.62936,608.35291,515.70358,608.35291Z"/><path class="cls-1" d="M766.92575,408.01758c-12.77026,0-15.17676-8.30011-26.46216-8.30011-6.71631,0-11.23535,5.36517-13.05518,8.00891a14.31212,14.31212,0,0,1,9.55518-4.00891c11.2854,0,13.69189,8.30011,26.46216,8.30011a19.6423,19.6423,0,0,0,17.06323-8.87476A19.705,19.705,0,0,1,766.92575,408.01758Z"/><path class="cls-1" d="M785.31125,385h-1.59619a6.5267,6.5267,0,0,1-.55542,1.879A5.13326,5.13326,0,0,0,785.31125,385Z"/><path class="cls-1" d="M723.83127,407.64221c0-3.6496,1.81445-9.97076,5.6665-15.34332-6.261,5.83759-9.1665,14.72644-9.1665,19.34332,0,.68579,2.67334,1.524,2.67334,1.524a22.37788,22.37788,0,0,1,3.0835-4.14136C725.33664,408.7572,723.83127,408.1568,723.83127,407.64221Z"/><path class="cls-1" d="M213.75351,198.90309s3.50382,2.76358,1.21205,2.76358c-23.25,0-45.39732,51.18385-66.03244,116.55447C132.27325,370.99841,97.737,392.6147,63.93331,392.6147c-22.34478,0-37.24131-20.32144-37.24131-46.637,0-54.23925,40.53573-99.26806,70.472-99.26806,12.60475,0,26.78509,8.18706,26.78509,35.08738,0,26.60793-28.36069,68.2742-61.01845,68.2742,0,0,1.28912-7.01748,5.5862-7.01748,8.16444,0,40.8222-33.18682,40.8222-65.35025,0-14.61974-3.58089-23.684-12.46151-23.684-27.78774,0-61.59139,45.32121-61.59139,90.93481,0,19.88285,10.45621,39.18091,28.07422,39.18091,22.387,0,48.48454-22.84966,71.55457-72.83474C162.07173,252.46082,180.257,198.90309,213.75351,198.90309Z"/><path class="cls-1" d="M212.38222,201.5c-23.75,0-11.51549,58.65982-21.82847,120.06274-6.09882,36.31205-28.83091,46.92938-28.83091,46.92938h-4.87369s12.39232-26.64891,16.0866-47.80656c7.73473-44.29782,7.781-73.01889,15.94763-96.18556,7.29083-20.68216,22.65-24.42733,22.65-24.42733Z"/><path class="cls-1" d="M160.18777,363.96c18.47742,0,76.029-164.96,120.81946-164.96,0,0,2.58079,2.66667,1.29167,2.66667-36.0177,0-92.91551,166.82545-120.576,166.82545C156.13665,368.49212,160.18777,363.96,160.18777,363.96Z"/><path class="cls-1" d="M279.49883,200.51126c-11.06164,0-46.36166,115.68169-46.36166,144.735,0,7.30995,1.19609,14.11687,7.35523,14.11687,11.37481,0,19.38524-22.17459,19.38524-27.87629,0,0,8.411.58847,8.411,6.72876s-5.11429,27.645-30.89673,27.645c-13.6074,0-21.48537-10.96481-21.48537-25.43835,0-28.94709,46.97689-127.04557,46.97689-127.04557S268.32639,200.51126,279.49883,200.51126Z"/><path class="cls-1" d="M302.79375,240.61323c-22.67884,0-43.53413,29.67808-43.53413,55.77432,0,22.51441,11.73666,29.02019,24.34141,29.02019,34.27609,0,68.93915-92.98157,68.93915-108.77089,0-4.23973-2.50663-9.72213-7.23341-9.72213-9.45356,0-16.32888,9.649-16.32888,19.51736,0,19.956,34.16174,15.57,34.16174,19.88283s-26.49862,47.87968-26.49862,65.862c0,7.45607,3.89626,13.81566,10.7725,13.81566,22.81629,0,44.37328-46.78318,44.37328-46.78318l-2.57824-1.75437s-23.992,38.01133-33.15909,38.01133c-1.96949,0-3.52718-2.04676-3.52718-6.9261,0-13.68774,23.93828-55.06161,23.93828-63.90655a4.20909,4.20909,0,0,0-3.13949-3.947c-10.40331-2.07333-36.40857-2.11406-37.51016-10.30728-1.032-7.67537,4.55423-16.81271,9.281-16.81271,1.28912,0,2.72148,1.60817,2.72148,4.38592,0,9.94143-37.74263,99.85285-62.0211,99.85285-6.87532,0-11.6021-5.40931-11.6021-19.66356,0-26.90033,24.20685-51.3884,29.93628-51.3884,3.15119,0,3.86737,2.63155,3.86737,5.11691,0,17.3975-26.57024,35.01429-33.44556,35.01429,0,0-6.8037,5.4824-1.07427,5.4824s42.39779-12.35368,42.39779-38.88852C315.87182,245.29155,308.52318,240.61323,302.79375,240.61323Z"/><path class="cls-1" d="M443.35167,276.5778c-10.36447,21.45626-26.35539,42.39726-37.45616,42.39726-6.87532,0-12.24666-6.57888-12.24666-20.83313,0-26.90033,24.20685-51.3884,29.93628-51.3884,3.15119,0,3.86737,2.63155,3.86737,5.11691,0,17.3975-27.931,33.77161-34.8063,33.77161,0,0-6.8037,5.4824-1.07427,5.4824s43.75853-11.111,43.75853-37.64584c0-8.18706-7.34863-12.86537-13.07807-12.86537-22.67884,0-43.35684,29.67808-43.35684,55.77432,0,22.51441,11.34505,29.02019,23.9498,29.02019,17.18716,0,34.45323-23.43955,45.66279-47.07557"/><path class="cls-1" d="M873.23664,277.54372C862.87217,299,846.0032,318.61887,834.90243,318.61887c-6.87532,0-12.24666-6.57888-12.24666-20.83313,0-26.90033,24.20685-51.3884,29.93628-51.3884,3.15119,0,3.86737,2.63155,3.86737,5.11691,0,17.3975-27.931,33.77161-34.8063,33.77161,0,0-6.8037,5.4824-1.07427,5.4824s43.75853-11.111,43.75853-37.64584c0-8.18706-7.34863-12.86537-13.07807-12.86537-22.67884,0-41.638,29.67808-41.638,55.77432,0,22.51441,9.62622,29.02019,22.231,29.02019,17.18716,0,34.45323-23.43955,45.66279-47.07557"/><path class="cls-1" d="M588.52115,246.717c-12.67637,0-39.57652,78.69077-69.61259,78.69077-12.60475,0-24.85141-6.50579-24.85141-29.02019,0-26.09624,20.678-55.77432,43.35684-55.77432,5.72943,0,13.07807,4.67832,13.07807,12.86537,0,26.53484-40.106,36.84175-45.83545,36.84175s1.07427-5.4824,1.07427-5.4824c6.87532,0,36.88322-15.57,36.88322-32.96752,0-2.48536-.71618-5.11691-3.86737-5.11691-5.72943,0-29.93628,24.48807-29.93628,51.3884,0,14.25425,5.37134,20.83313,12.24666,20.83313,22.12993,0,50.49062-78.36183,68.17391-78.36183,7.62725,0,10.44009,5.66515,10.44009,12.68263,0,23.39159-30.31528,70.28442-30.31528,70.28442H554.53055s36.33154-58.881,36.33154-73.79316C590.86209,248.252,590.56226,246.717,588.52115,246.717Z"/><path class="cls-1" d="M500.073,279.79415c-10.36447,21.45626-25.78244,39.40021-36.167,39.40021-6.87532,0-12.24666-6.79818-12.24666-21.05243,0-26.90033,24.20685-51.3884,29.93628-51.3884,3.15119,0,3.86737,2.63155,3.86737,5.11691,0,7.01748-10.02651,19.80975-14.75329,19.80975-1.17689,0,1.58769,6.35959,5.29972,6.35959,7.1976,0,17.33153-14.51505,17.33153-24.56117,0-8.18706-7.34863-12.86537-13.07807-12.86537-22.67884,0-43.78654,29.67808-43.78654,55.77432,0,22.51441,11.7764,29.02019,24.38115,29.02019,18.08827,0,33.42563-21.0108,44.63519-44.64682"/><path class="cls-1" d="M576.41772,299.09221c11.6021-22.953,31.41964-58.479,48.79871-58.479,5.15649,0,9.64149,3.36254,9.64149,8.84494,0,16.81271-29.57819,74.56069-29.57819,74.56069H590.66969s32.44291-62.31666,32.44291-71.856c0-1.75437-.28647-3.50874-1.71883-3.50874-10.09812,0-32.51452,37.71894-40.24926,53.06967Z"/><path class="cls-1" d="M672.16848,303.338c0,11.1841-14.8249,27.412-27.50127,27.412-7.16179,0-14.61005-4.08333-14.61005-13.45016,0-21.19863,27.28879-55.59762,27.28879-65.137,0-1.75437-.28647-2.7412-1.71883-2.7412-10.09812,0-32.51452,36.9514-40.24926,52.30213l-4.72678-2.63155c11.6021-22.953,31.275-58.479,48.6541-58.479a9.56656,9.56656,0,0,1,9.49963,9.68558c0,16.81271-26.46389,50.9193-26.46389,68.1706,0,3.80113,1.13428,6.68773,4.57194,6.68773,7.16179,0,19.01891-12.91518,20.09912-19.8455C667.51331,302.0953,672.16848,303.338,672.16848,303.338Z"/><path class="cls-1" d="M779.39856,215.62385c-50.70547,0-62.88051,147.367-117.02364,147.367-14.61005,0-18.90712-5.33621-18.90712-10.59931s10.74268-7.89466,18.90712-7.89466c31.79835,0,61.44815,14.69284,90.23855,14.69284,23.63391,0,48.55693-15.78932,48.55693-43.42064,0-23.24539-21.48537-42.68965-40.53573-42.68965-13.96549,0-15.11138,8.918-15.11138,10.67241,0,3.94733,6.15914,9.21044,11.96019,9.21044,31.01055,0,54.4296-30.70146,54.4296-51.90009,0-30.70146-26.85689-50.53657-54.64463-50.53657-46.4084,0-73.83787,35.22349-73.83787,58.29353,0,13.45752,7.8232,21.21529,21.28736,21.21529,9.06413,0,18.10248-6.16545,18.10248-9.38179,0-1.60817-2.72148-1.31578-2.72148-1.31578a9.94077,9.94077,0,0,1-7.878,4.23973c-7.16179,0-14.89652-6.14029-14.89652-17.54369,0-22.222,23.49067-50.3528,58.72667-50.3528,27.50127,0,40.47732,19.06655,40.47732,45.96688,0,23.24539-21.57019,46.49079-37.6126,46.49079-5.15649,0-7.44826-2.85085-7.44826-5.26311,0-3.50874,3.07957-4.82452,7.5915-4.82452,15.03976,0,25.35274,17.54369,25.35274,36.84175,0,20.17525-19.122,36.18387-36.95483,36.18387-32.65776,0-44.4031-13.15777-84.65235-13.15777-10.313,0-24.923,5.7017-24.923,15.35073,0,7.67537,6.73208,15.57,23.63391,15.57,25.60816,0,43.41995-15.88437,57.00238-37.34509C746.79574,286.81366,756.41376,219,780.21672,219,782.889,219,779.39856,215.62385,779.39856,215.62385Z"/><path class="cls-1" d="M885.53628,273.29767c12.98671,0,63.20537-43.85086,63.20537-82.73938,0-5.4824-4.13916-12.765-10.36991-12.765-17.1883,0-72.602,75.6508-72.602,128.9836,0,13.88876,7.97376,18.85947,15.421,18.85947,21.10411,0,58.05894-49.78023,58.05894-60.96433,0,0-2.57824-6.57888-2.57824.87718s-35.88057,51.096-48.27046,51.096c-6.44561,0-8.45091-6.35959-8.45091-15.57,0-34.5026,51.976-114.87554,60.57019-114.87554,1.71883,0,2.7931,1.353,2.7931,5.30036,0,26.90033-42.02115,73.39131-54.33943,73.39131C886.68217,264.89131,885.53628,273.29767,885.53628,273.29767Z"/><path class="cls-1" d="M982.38805,245.22776c1.79447-1.83158,14.58567-2.04676,14.58567-.29239,0,3.87423-30.366,43.63994-30.366,61.62222,0,8.33325,3.462,11.91509,7.75911,11.91509,16.4005,0,67.106-72.80632,67.106-92.32368,0-3.50874-.20343-6.79818-3.74851-6.79818-3.0008,0-6.63608,5.40931-6.63608,11.5496,0,29.38568,4.77328,50.365,4.77328,69.95547,0,21.27173-19.95627,34.57569-32.13131,34.57569-8.88062,0-14.10873-4.02043-14.10873-8.114s6.08752-9.57593,17.83286-9.57593c17.618,0,44.18824,14.40045,68.53833,14.40045s52.06621-13.15777,52.06621-34.86809c0-23.90328-20.69757-38.15753-44.54633-38.15753-17.47477,0-23.992,10.08762-23.992,15.64313s3.15119,11.6958,5.72943,11.6958-15.183,3.36254-15.183-11.111c0-10.23382,12.96284-21.05243,33.87526-21.05243,33.01585,0,50.13253,22.8068,50.13253,42.25106,0,24.415-29.29172,46.49079-58.297,46.49079-22.34478,0-52.99724-21.78342-70.90172-21.78342-4.87,0-9.45356,3.07015-9.45356,6.28649,0,2.63155,3.15119,3.94733,6.44561,3.94733,7.16179,0,19.122-10.52622,19.122-25.146s.85941-66.89178.85941-70.61336c0-11.4034,7.92521-21.491,15.80317-21.491,5.22811,0,8.66577,5.33621,8.66577,11.91509,0,21.71032-47.17181,99.48736-76.29421,99.48736-10.88592,0-14.77937-10.81861-14.77937-24.26877C955.24487,284.40867,979.34429,248.33445,982.38805,245.22776Z"/><path class="cls-1" d="M964.26873,240.11085c-21.7246,0-40.24316,29.89492-45.072,52.48488-3.43766,16.08172,1.14589,32.602,12.53313,32.602,15.03976,0,34.59144-37.57274,37.48054-49.99952,0,0-.34883-6.75652-3.75994.32894-3.7127,7.71191-21.832,40.89112-28.49249,40.89112-3.86737,0-5.29972-7.15606-3.83156-18.08432,3.12258-23.24281,20.59015-51.93664,32.622-51.93664,5.5862,0,8.29625,9.17389,5.718,15.09489,0,0,2.42314,4.95985,4.94163.87718C980.06047,256.44841,977.76114,240.11085,964.26873,240.11085Z"/><path class="cls-1" d="M158.26853,105.10906h-5.34167l4.68828-2.55818c12.65854-6.90662,27.74477-19.29761,27.74477-39.105,0-26.76468-29.27686-45.45771-71.19912-45.45771-48.23463,0-77.85133,31.73929-77.85133,54.49349,0,20.14439,13.68181,25.51986,21.7666,25.51986,3.77954,0,7.08781-2.30659,8.7119-3.6697C63.72,91.57933,56.08021,83.58,56.08021,72.18315c0-19.13144,24.78761-47.51083,59.0325-47.51083,34.81568,0,50.47644,22.71759,50.47644,38.84869,0,20.91325-16.98069,37.08847-33.39436,40.64458l-1.65226.35768V71.511c0-15.06558,13.08662-20.335,16.95253-21.561v-.39335c-.76041-.80454-3.282-2.96843-8.39084-2.96843-12.49707,0-20.00169,9.24888-20.07492,9.34276l-1.20352,1.51238-1.02139-1.64475a21.704,21.704,0,0,0-18.1936-9.21039c-5.09946,0-7.61916,2.15544-8.389,2.97031V49.95c3.86591,1.226,16.95253,6.49543,16.95253,21.561v94.387c0,15.06558-13.08662,20.335-16.95253,21.561v.39335c.76041.80454,3.28011,2.96843,8.389,2.96843a21.704,21.704,0,0,0,18.1936-9.21039l.935-1.50768,1.21666,1.29176c.08637.09106,9.18692,9.42631,29.7425,9.42631,36.95986,0,50.12721-23.3278,50.12721-45.15918C198.8258,119.55034,174.84555,105.10906,158.26853,105.10906ZM169.042,42.93081c.4938.46481,1.10589,1.01975,1.75365,1.69356a15.59647,15.59647,0,0,1,2.009,2.51371,19.05393,19.05393,0,0,1,2.08691,3.29923,32.84557,32.84557,0,0,1,1.79214,3.96459q.32951,1.09169.66841,2.21682a12.2971,12.2971,0,0,1,.53886,2.31515,27.95224,27.95224,0,0,1,.476,4.83766l-.016,2.44342c-.07792.80665-.19433,1.60708-.29478,2.40011a29.83215,29.83215,0,0,1-.99886,4.56459,33.04235,33.04235,0,0,1-1.59593,4.03137c-.306.616-.583,1.21948-.88433,1.78639q-.50976.821-.98009,1.58361a24.17039,24.17039,0,0,1-1.88789,2.62448,22.94907,22.94907,0,0,1-1.6823,1.8345,11.95043,11.95043,0,0,1-1.63817,1.41545s.26474-.72814.72662-2.00231c.24221-.61655.44968-1.4131.7698-2.25789.24221-.88985.58392-1.84459.86556-2.91515.31449-1.057.57266-2.21611.87213-3.41811.31355-1.19765.45531-2.50221.73131-3.79737.123-1.32756.4187-2.664.44874-4.04639.04694-.68778.08074-1.37989.15208-2.07166l-.03567-2.086a36.19172,36.19172,0,0,0-.24784-4.14414c-.08449-1.3752-.46564-2.68457-.62523-4.00367-.22906-1.30385-.63837-2.52955-.90686-3.74116-.25535-1.23274-.74164-2.24967-1.04956-3.30557a30.19621,30.19621,0,0,0-1.012-2.87784c-.38678-.84995-.6778-1.62351-.92752-2.25261-.4938-1.264-.72286-2.02155-.72286-2.02155S168.04782,42.0067,169.042,42.93081Zm-47.84222,80.00795c-.02629,2.242-.169,4.44842-.24408,6.58356-.18963,4.2704-.48253,8.25612-.83552,11.67247-.31919,3.41635-.71723,6.2632-1.02139,8.25612s-.54262,3.13154-.54262,3.13154-.23845-1.13874-.54262-3.13154-.70221-4.83977-1.02139-8.25612c-.353-3.41635-.64588-7.40206-.83552-11.67247-.0751-2.13514-.2178-4.34152-.24408-6.58356-.061-2.24193-.06571-4.51941-.08074-6.797.015-2.27749.02441-4.55509.08449-6.797.0338-2.24193.17086-4.4483.246-6.58356.06571-2.13514.2347-4.19917.36706-6.15653.11641-1.95724.29947-3.8077.46939-5.51593.32012-3.41623.71441-6.2632,1.01858-8.25612.30229-1.9928.53886-3.13154.53886-3.13154s.23657,1.13874.53886,3.13154c.30417,1.99292.69845,4.83989,1.01858,8.25612.16992,1.70823.353,3.55869.46939,5.51593.13237,1.95736.30135,4.02139.36706,6.15653.0751,2.13526.21216,4.34163.246,6.58356.06008,2.24193.06947,4.51953.08449,6.797C121.26549,118.41935,121.2608,120.69683,121.19978,122.93876ZM145.61,183.91231c-11.59208,0-14.983-11.55359-15.01488-11.67l-.05257-.36988V115.89191l.88246-.33233c3.7157-1.40066,9.17941-3.07076,14.10614-3.07076,16.58265,0,29.08723,14.45349,29.08723,33.62061C174.61836,169.78082,163.77355,183.91231,145.61,183.91231Zm43.16708-27.71414a34.07394,34.07394,0,0,1-1.37438,4.06915,26.76129,26.76129,0,0,1-1.67854,3.4404,23.23258,23.23258,0,0,1-1.73018,2.714,21.50406,21.50406,0,0,1-1.55932,1.92568,12.3857,12.3857,0,0,1-1.549,1.50193s.21968-.73929.60458-2.03317c.35674-1.28566.85054-3.09223,1.31805-5.24486.2638-1.06552.42245-2.249.69094-3.4539.18776-1.22758.38115-2.51476.53229-3.83915.12955-1.33108.29759-2.68914.32951-4.08112.11172-1.38576.09012-2.79182.06384-4.19859.07886-1.41005-.19621-2.80285-.21874-4.194-.11172-1.38423-.38021-2.72986-.50882-4.064-.20747-1.31758-.50413-2.58329-.71441-3.813a13.42118,13.42118,0,0,0-.40462-1.75341c-.14176-.566-.2807-1.11269-.41213-1.63759-.30323-1.04721-.43-2.06978-.77168-2.95353-.30417-.87964-.51821-1.67455-.706-2.32231-.368-1.30033-.52384-2.07377-.52384-2.07377s.56984.54649,1.46919,1.5558c.44592.50706,1.00168,1.11457,1.58,1.84353a17.06985,17.06985,0,0,1,1.78275,2.64971,21.5021,21.5021,0,0,1,1.82781,3.39745,41.899,41.899,0,0,1,1.56213,3.99745,44.23381,44.23381,0,0,1,1.05425,4.494,35.45705,35.45705,0,0,1,.43184,4.76221,30.22107,30.22107,0,0,1-.245,4.77476A29.47427,29.47427,0,0,1,188.77707,156.19817Z"/><path class="cls-1" d="M407.855,172.01137l-.0338-.09576L372.431,56.03891l.01127-.24033c.74539-14.04418,13.13356-19.0601,16.87179-20.257v-.3971c-.76041-.80454-3.282-2.96843-8.39084-2.96843-12.45013,0-20.00169,9.25076-20.0768,9.3437l-1.0627,1.32838-1.06646-1.32838c-.0751-.09294-7.62479-9.3437-20.07492-9.3437-5.09946,0-7.621,2.15638-8.39084,2.97031V35.442c3.24819.83552,11.97511,4.54371,16.70657,20.641l.11641.39147-.12016.39053L311.49093,172.97832c-4.769,10.89926-14.60182,15.38289-18.90144,16.87461a20.98324,20.98324,0,0,0,6.87376,1.49079,15.40092,15.40092,0,0,0,11.53951-4.877l.78858-.95568,1.03078.69c.0751.05163,7.69614,5.14265,15.39227,5.14265a7.03082,7.03082,0,0,0,4.35219-1.26548c-3.0961-1.06176-10.167-4.48832-10.167-13.63018,0-3.30733,2.49716-13.19646,7.6323-30.23254l.2929-.96882h44.60154l7.0803,23.279c1.25609,14.41876-9.18317,18.55128-12.7374,19.53418v.09388a22.21428,22.21428,0,0,0,10.99314,3.19c12.26425,0,16.90559-8.33451,17.0971-8.68937l1.26923-2.35071,1.16033,2.40328c.17086.34829,4.37285,8.6368,16.59579,8.6368a15.6598,15.6598,0,0,0,9.56995-3.1008v-.13612C422.4869,187.383,412.62781,184.285,407.855,172.01137Zm-75.43866-33.599.54825-1.76585c8.36643-26.94868,18.85638-57.94352,18.96152-58.25425l1.35748-4.00766,19.55483,64.02776Zm55.81623,9.71417c-.87964-1.814-2.10006-4.41674-3.41435-7.5863-1.34527-3.16018-2.80133-6.88186-4.2433-10.90583-.70221-2.01791-1.48985-4.0837-2.1761-6.21814-.721-2.124-1.39785-4.29868-2.0841-6.47032-.65715-2.18056-1.32181-4.35912-1.92544-6.51926-.62992-2.15169-1.15095-4.30021-1.70858-6.36271-.568-2.05922-1.01576-4.08112-1.46638-5.99037-.46657-1.90432-.83833-3.7265-1.18-5.40856-.70221-3.35873-1.166-6.19514-1.4645-8.18888-.29853-1.9935-.40931-3.15126-.40931-3.15126s.56233,1.01834,1.43915,2.833c.8787,1.81431,2.0963,4.418,3.4106,7.58747.66654,1.58208,1.38752,3.29595,2.07659,5.13162.705,1.83086,1.47483,3.75313,2.16765,5.774.70315,2.01756,1.48515,4.08511,2.17891,6.21755.72,2.124,1.39972,4.29751,2.08691,6.469.65809,2.18044,1.3265,4.35794,1.9292,6.51808.63743,2.14958,1.15189,4.3,1.71046,6.36213,1.0796,4.13616,1.97614,8.03058,2.6483,11.39869.70221,3.35861,1.16315,6.19585,1.45981,8.19005.29759,1.99386.40649,3.15208.40649,3.15208S389.11132,149.94084,388.23262,148.12652Z"/><path class="cls-1" d="M468.04037,96.017C455.1171,81.9662,443.955,69.83056,443.955,59.92828c0-12.76838,7.16291-20.69921,18.693-20.69921,8.83957,0,17.98519,5.49751,17.98519,14.69757,0,8.10357-7.713,11.6869-10.36791,12.68013l-.15021,1.28519a20.22931,20.22931,0,0,0,9.74456,2.34226c6.52454,0,14.49292-5.37171,14.49292-11.64,0-6.26919-2.05406-8.74382-2.07659-8.76823l-1.40066-1.63724,2.071-.57923c.26661-.07229,6.53392-1.83626,6.53392-7.57409,0-3.19843-2.24557-6.16592-3.43782-7.51777a9.41082,9.41082,0,0,1-8.99166,7.76842c-2.26059,0-4.21889-1.15-6.69727-2.607a36.09132,36.09132,0,0,0-20.53492-5.72751c-16.55261,0-35.06539,14.67317-35.06539,34.31061,0,14.12961,13.29691,29.66176,26.15823,44.68322,13.72687,16.03346,27.92126,32.61329,27.92126,49.00068,0,12.62474-9.56244,23.69956-20.4617,23.69956-10.28342,0-18.33817-9.67791-18.33817-22.03322,0-10.30407,8.78888-18.19829,11.01192-20.02892a7.46692,7.46692,0,0,0-.05633-1.441,26.78173,26.78173,0,0,0-9.23949-1.3387c-11.92817,0-21.27093,9.72578-21.27093,22.14212,0,19.47034,19.88716,29.97719,38.60085,29.97719,20.76962,0,42.84414-13.70059,42.84414-39.09C501.9229,132.85852,483.92269,113.28585,468.04037,96.017Zm20.36031,49.54623c-.06384.54672-.09763.83845-.09763.83845s-.0751-.28422-.215-.817a15.31381,15.31381,0,0,0-.72474-2.20015A38.52093,38.52093,0,0,0,483.289,136.342c-1.9461-2.75685-4.447-5.82773-7.1845-9.09211-1.34527-1.64874-2.85014-3.27342-4.29587-4.99315-1.47577-1.70389-2.975-3.43477-4.47517-5.16565-1.48985-1.75435-2.98063-3.50858-4.448-5.23547-1.47107-1.72877-2.84639-3.50623-4.21419-5.19616a103.37954,103.37954,0,0,1-6.9714-9.74562,42.79425,42.79425,0,0,1-2.362-4.24259,20.6152,20.6152,0,0,1-1.35654-3.54355,8.24712,8.24712,0,0,1-.34078-2.43637c.062-.54614.09576-.83739.09576-.83739s.07416.28445.215.8178a9.68681,9.68681,0,0,0,1.0214,2.03164,31.81383,31.81383,0,0,0,2.11508,2.85378c.89748,1.05484,1.93859,2.21259,3.09329,3.47349,2.3723,2.48543,5.13983,5.38521,8.10545,8.492,1.472,1.57774,3.04541,3.165,4.57,4.85444,1.5443,1.66869,3.07545,3.40954,4.60379,5.1565,1.50581,1.768,3.0088,3.54578,4.42448,5.35657,1.44009,1.793,2.75626,3.64142,4.02925,5.44071,1.29364,1.7797,2.41079,3.613,3.44815,5.36009.51351.87823.9998,1.747,1.4523,2.59033q.621,1.307,1.19882,2.52122a26.588,26.588,0,0,1,2.40516,8.3324A11.27561,11.27561,0,0,1,488.40068,145.56318Z"/><path class="cls-1" d="M1053.64145,96.017c-12.92328-14.05075-24.0854-26.18639-24.0854-36.08867,0-12.76838,7.16291-20.69921,18.693-20.69921,8.84145,0,17.98707,5.49751,17.98707,14.69757,0,8.10357-7.713,11.6869-10.36791,12.68013l-.1502,1.28519a20.213,20.213,0,0,0,9.74268,2.34226c6.52454,0,14.4948-5.37171,14.4948-11.64,0-6.26919-2.05593-8.74288-2.07659-8.76729l-1.40254-1.63817,2.071-.57923c.26661-.07229,6.5358-1.83626,6.5358-7.57409,0-3.21721-2.24557-6.17719-3.4397-7.52152a9.41017,9.41017,0,0,1-8.98978,7.77218c-2.26059,0-4.21889-1.15-6.69915-2.607a36.08619,36.08619,0,0,0-20.53492-5.72751c-16.55261,0-35.06352,14.67317-35.06352,34.31061,0,14.12961,13.29691,29.66176,26.15635,44.68322,13.72687,16.03346,27.92126,32.61329,27.92126,49.00068,0,12.62474-9.56056,23.69956-20.45982,23.69956-10.28342,0-18.34005-9.67791-18.34005-22.03322,0-10.30407,8.78888-18.19829,11.01192-20.02986a7.31169,7.31169,0,0,0-.05633-1.44009,26.778,26.778,0,0,0-9.2395-1.3387c-11.92817,0-21.27093,9.72578-21.27093,22.14212,0,19.47034,19.88716,29.97719,38.60085,29.97719,20.7715,0,42.846-13.70059,42.846-39.09C1087.52585,132.85852,1069.52376,113.28585,1053.64145,96.017Zm19.98667,51.7445c-.0629.5506-.09763.8442-.09763.8442s-.07416-.28609-.214-.82237a17.35458,17.35458,0,0,0-.72662-2.2167c-.39147-.9247-.91719-2.00864-1.57528-3.223-.67217-1.20868-1.51707-2.52544-2.43051-3.958-1.9076-2.8316-4.29681-6.03156-6.91413-9.44344-2.66051-3.40367-5.49751-7.03429-8.33451-10.66492-1.40442-1.84553-2.80884-3.69094-4.19166-5.5076-1.38658-1.81971-2.6699-3.68343-3.95133-5.45784a107.22,107.22,0,0,1-6.47009-10.17405,44.657,44.657,0,0,1-2.15544-4.37918,22.038,22.038,0,0,1-1.21572-3.60962,8.93429,8.93429,0,0,1-.28445-2.45269c.06571-.5493.10139-.84232.10139-.84232s.07229.28692.20935.82484a10.73516,10.73516,0,0,0,.97915,2.07975,53.509,53.509,0,0,0,4.94363,6.62968c2.24651,2.63188,4.86759,5.70252,7.67642,8.99236,1.39127,1.668,2.88206,3.3518,4.32121,5.13244,1.45981,1.76245,2.90365,3.59178,4.34562,5.42816,1.4185,1.85374,2.83512,3.71828,4.17007,5.60265,1.35654,1.87088,2.58916,3.78963,3.78986,5.64877,1.21948,1.84224,2.2681,3.72438,3.24068,5.51816a54.29555,54.29555,0,0,1,2.50279,5.206,36.11191,36.11191,0,0,1,1.60532,4.65436,22.80533,22.80533,0,0,1,.69282,3.74633A12.30908,12.30908,0,0,1,1073.62812,147.76145Z"/><path class="cls-1" d="M603.75636,35.09v-.39335c-.76041-.80454-3.282-2.96937-8.39084-2.96937-12.49707,0-20.00169,9.24982-20.07492,9.3437l-1.0627,1.33495-1.06833-1.334c-.0751-.09294-7.62667-9.34464-20.07492-9.34464-5.11449,0-7.63418,2.16577-8.39084,2.96843V35.09c3.86591,1.227,16.95253,6.49543,16.95253,21.561V165.898c0,15.06558-13.08662,20.335-16.95253,21.561v.39335c.76041.80454,3.282,2.96843,8.39084,2.96843,12.44825,0,19.99982-9.25076,20.07492-9.3437l1.0627-1.32838,1.06646,1.32838c.0751.09294,7.62667,9.3437,20.0768,9.3437,5.09946,0,7.621-2.15638,8.39084-2.97031V187.459c-3.86591-1.226-16.95253-6.49543-16.95253-21.561V56.651C586.80383,41.58542,599.89046,36.317,603.75636,35.09ZM576.634,122.93876c-.02535,2.242-.169,4.44842-.24408,6.58356-.18963,4.2704-.48253,8.25612-.83458,11.67247-.32012,3.41635-.71723,6.2632-1.02233,8.25612-.30417,1.9928-.54262,3.13154-.54262,3.13154s-.23751-1.13874-.54168-3.13154c-.3051-1.99292-.70221-4.83977-1.02233-8.25612-.353-3.41635-.64494-7.40206-.83552-11.67247-.0751-2.13514-.2178-4.34152-.24408-6.58356-.061-2.24193-.06571-4.51941-.08074-6.797.016-2.27749.02441-4.55509.08543-6.797.03286-2.24193.16992-4.4483.246-6.58356.06478-2.13514.23376-4.19917.36613-6.15653.11641-1.95724.30041-3.8077.46939-5.51593.32106-3.41623.71441-6.2632,1.01858-8.25612.30323-1.9928.53886-3.13154.53886-3.13154s.23657,1.13874.53886,3.13154c.30417,1.99292.69845,4.83989,1.01858,8.25612.16992,1.70823.353,3.55869.46939,5.51593.13237,1.95736.30135,4.02139.36706,6.15653.076,2.13526.2131,4.34163.246,6.58356.061,2.24193.06947,4.51953.08449,6.797C576.69972,118.41935,576.695,120.69683,576.634,122.93876Z"/><path class="cls-1" d="M989.29544,172.01137l-.0338-.09576L953.86955,56.03891l.01127-.24033c.74539-14.04418,13.13356-19.0601,16.87179-20.257v-.3971c-.76041-.80454-3.2801-2.96843-8.389-2.96843-12.45013,0-20.00169,9.25076-20.0768,9.3437l-1.0627,1.32838L940.1577,41.5197c-.0751-.09294-7.62667-9.3437-20.07492-9.3437-5.09946,0-7.621,2.15544-8.39084,2.97031V35.442c3.24819.83552,11.97323,4.54464,16.70657,20.641l.11641.39147-.12016.39053L892.93132,172.97832a29.62825,29.62825,0,0,1-11.76294,13.40393l-.60458.37927-.65527-.27976c-5.34543-2.28406-14.3108-7.99467-14.3108-20.58374V56.651c0-15.06558,13.08662-20.334,16.95253-21.561v-.39335c-.76041-.80454-3.2801-2.96937-8.39084-2.96937-12.44825,0-19.99982,9.2517-20.07492,9.34464l-1.0627,1.32838-1.06646-1.32838c-.0751-.09294-7.62667-9.34464-20.0768-9.34464-5.09946,0-7.61916,2.15638-8.389,2.97125V35.09c3.86591,1.227,16.95065,6.49543,16.95065,21.561V165.898c0,15.06464-13.08475,20.334-16.95065,21.561v.39335c.76041.80454,3.28011,2.96843,8.389,2.96843,12.45013,0,20.00169-9.25076,20.0768-9.3437l1.0627-1.32838,1.06646,1.32838c.0751.09294,7.62667,9.3437,20.07492,9.3437a15.789,15.789,0,0,0,2.03528-.13894l.26286-.0338.25723.06853a16.6115,16.6115,0,0,0,4.18885.62711,15.40092,15.40092,0,0,0,11.53951-4.877l.78858-.95568,1.03078.69c.0751.05163,7.69614,5.14265,15.39227,5.14265a6.93,6.93,0,0,0,4.44044-1.33589c-2.9459-1.227-10.25526-5.12481-10.25526-13.55977,0-3.02757,2.5441-12.9167,7.77312-30.23348l.2929-.96788h44.46073l7.07842,23.279c1.25609,14.41876-9.18317,18.55128-12.7374,19.53418v.09388a22.24013,22.24013,0,0,0,10.995,3.19c12.26425,0,16.90559-8.33451,17.0971-8.68937l1.26923-2.35071,1.16033,2.40328c.17086.34829,4.37285,8.6368,16.59579,8.6368a15.64741,15.64741,0,0,0,9.56807-3.1008v-.13612C1003.92542,187.383,994.06821,184.285,989.29544,172.01137ZM854.93505,122.93876c-.02535,2.242-.169,4.44842-.24408,6.58356-.18963,4.2704-.48253,8.25612-.83458,11.67247-.32012,3.41635-.71723,6.2632-1.02233,8.25612-.30417,1.9928-.54262,3.13154-.54262,3.13154s-.23751-1.13874-.54168-3.13154c-.3051-1.99292-.70221-4.83977-1.02233-8.25612-.352-3.41635-.64494-7.40206-.83552-11.67247-.07416-2.13514-.2178-4.34152-.24314-6.58356-.062-2.24193-.06665-4.51941-.08074-6.797.015-2.27749.02347-4.55509.08449-6.797.03286-2.24193.16992-4.4483.246-6.58356.06478-2.13514.23376-4.19917.36706-6.15653.11547-1.95724.29947-3.8077.46845-5.51593.32106-3.41623.71535-6.2632,1.01858-8.25612s.53886-3.13154.53886-3.13154.23657,1.13874.5398,3.13154.69752,4.83989,1.01858,8.25612c.169,1.70823.352,3.55869.46845,5.51593.13331,1.95736.30229,4.02139.36706,6.15653.076,2.13526.2131,4.34163.246,6.58356.061,2.24193.06947,4.51953.08449,6.797C855.00077,118.41935,854.99607,120.69683,854.93505,122.93876Zm59.05879,15.4736.54825-1.76585c8.3439-26.91676,18.71932-57.93788,18.82258-58.24862l1.35185-4.0377,19.56234,64.05217Zm54.90092,9.71417c-.87964-1.814-2.09912-4.41674-3.41435-7.5863-1.34434-3.16018-2.80039-6.88186-4.2433-10.90583-.70127-2.01791-1.48985-4.0837-2.1761-6.21814-.72-2.124-1.39691-4.29868-2.0841-6.47032-.65715-2.18056-1.32181-4.35912-1.92544-6.51926-.62992-2.15169-1.15-4.30021-1.70764-6.36271-.568-2.05922-1.0167-4.08112-1.46732-5.99037-.46657-1.90432-.83739-3.7265-1.18-5.40856-.70221-3.35873-1.166-6.19514-1.4645-8.18888-.29853-1.9935-.40931-3.15126-.40931-3.15126s.56233,1.01834,1.44009,2.833c.8787,1.81431,2.09536,4.418,3.40966,7.58747.66654,1.58208,1.38752,3.29595,2.07659,5.13162.705,1.83086,1.47577,3.75313,2.16765,5.774.70315,2.01756,1.48515,4.08511,2.17891,6.21755.72,2.124,1.40066,4.29751,2.08691,6.469.659,2.18044,1.3265,4.35794,1.93014,6.51808.63743,2.14958,1.15095,4.3,1.71046,6.36213,1.07866,4.13616,1.9752,8.03058,2.64737,11.39869.70315,3.35861,1.16409,6.19585,1.46075,8.19005.29759,1.99386.40649,3.15208.40649,3.15208S969.77346,149.94084,968.89476,148.12652Z"/><path class="cls-1" d="M255.78923,31.72727c-23.91266,0-43.368,35.80234-43.368,79.80869s19.45532,79.80775,43.368,79.80775,43.368-35.8014,43.368-79.80775S279.70189,31.72727,255.78923,31.72727ZM229.53806,153.47911a88.94422,88.94422,0,0,1-3.10643-8.94507,106.09122,106.09122,0,0,1-2.98533-13.069c-.37364-2.42828-.77825-4.94515-.99042-7.52739-.24972-2.57308-.384-5.30518-.42057-7.84223-.02347-2.66966.03661-5.28159.22437-7.87134.14457-2.58552.47127-5.1139.79045-7.55133.29478-2.44142.75478-4.77723,1.20352-6.98161.42527-2.20884.9538-4.2724,1.47013-6.16533a83.48665,83.48665,0,0,1,2.95247-9.00421c.83833-2.13033,1.43446-3.301,1.43446-3.301s-.14082,1.29458-.38772,3.56c-.22531,2.24522-.54825,5.45256-.935,9.30145-.16147,1.91347-.33608,3.98642-.521,6.17895-.17931,2.1876-.29478,4.49771-.45249,6.87529-.16053,2.37887-.20747,4.84118-.28163,7.33306-.0629,2.4859-.10233,5.04009-.04976,7.5322.00939,2.626.12767,5.05382.246,7.54922.154,2.4873.26286,4.94738.47972,7.32321.21874,2.38146.429,4.68358.629,6.86661.23376,2.19006.45625,4.26066.66,6.172.90592,7.711,1.50956,12.85169,1.50956,12.85169S230.40268,155.59735,229.53806,153.47911Zm26.25117,28.79034c-9.80276,0-15.09186-36.44353-15.09186-70.73348,0-34.2909,5.2891-70.73442,15.09186-70.73442S270.883,77.24506,270.883,111.536C270.883,145.82592,265.592,182.26944,255.78923,182.26944ZM286.76716,131.465a106.09124,106.09124,0,0,1-2.98533,13.069,89.18246,89.18246,0,0,1-3.10643,8.94507c-.86462,2.11824-1.46919,3.28515-1.46919,3.28515s.60364-5.14065,1.50862-12.85169c.20465-1.91136.42621-3.982.6609-6.172.2-2.183.41025-4.48515.629-6.86661.21686-2.37582.32576-4.8359.47972-7.32321.11829-2.4954.23657-4.92321.246-7.54922.05257-2.49211.01314-5.04631-.05069-7.5322-.07323-2.49188-.12016-4.95419-.2807-7.33306-.15865-2.37758-.27319-4.68769-.45249-6.87529-.18494-2.19253-.35955-4.26547-.521-6.17895-.38678-3.84889-.70972-7.05624-.935-9.30145-.2469-2.2654-.38866-3.56-.38866-3.56s.59707,1.17066,1.4354,3.301a83.48665,83.48665,0,0,1,2.95247,9.00421c.51633,1.89294,1.04486,3.9565,1.47013,6.16533.44874,2.20438.90874,4.54019,1.20352,6.98161.31919,2.43743.64588,4.96581.79045,7.55133.18776,2.58975.24784,5.20167.22437,7.87134-.03661,2.53706-.17086,5.26915-.42057,7.84223C287.54541,126.51986,287.1408,129.03674,286.76716,131.465Z"/><path class="cls-1" d="M668.23943,31.72727c-12.45013,0-22.89127,9.2517-22.96637,9.34464l-1.0627,1.32838-1.06646-1.32838c-.0751-.09294-7.62667-9.34464-20.0768-9.34464-5.11449,0-7.63418,2.16577-8.39084,2.96843V35.09c3.86591,1.227,16.95253,6.49543,16.95253,21.561V165.898c0,15.06558-13.08662,20.335-16.95253,21.561v.39335c.76041.80454,3.282,2.96843,8.39084,2.96843,12.45013,0,20.00169-9.25076,20.0768-9.3437l1.05519-1.31805,1.32181,1.6072a24.13042,24.13042,0,0,0,17.35433,8.92688c.81862.0798,1.6316.12767,2.47275.12767,33.8093,0,57.3258-31.95427,57.3258-83.392C722.67378,41.15358,689.50848,31.72727,668.23943,31.72727Zm-22.05481,91.21149c-.02535,2.242-.169,4.44842-.24408,6.58356-.19057,4.2704-.48253,8.25612-.83458,11.67247-.32012,3.41635-.71817,6.2632-1.02327,8.25612-.30417,1.9928-.54168,3.13154-.54168,3.13154s-.23845-1.13874-.54168-3.13154c-.306-1.99292-.70315-4.83977-1.02327-8.25612-.352-3.41635-.64494-7.40206-.83458-11.67247-.0751-2.13514-.21874-4.34152-.24408-6.58356-.061-2.24193-.06571-4.51941-.08074-6.797.016-2.27749.02441-4.55509.08449-6.797.03286-2.24193.17086-4.4483.2469-6.58356.06478-2.13514.23376-4.19917.36613-6.15653.11641-1.95724.29947-3.8077.46939-5.51593.32012-3.41623.71441-6.2632,1.01858-8.25612.30229-1.9928.53886-3.13154.53886-3.13154s.23657,1.13874.53886,3.13154c.30417,1.99292.69845,4.83989,1.01858,8.25612.16992,1.70823.353,3.55869.46939,5.51593.13237,1.95736.30135,4.02139.36613,6.15653.076,2.13526.2131,4.34163.246,6.58356.061,2.24193.06947,4.51953.08543,6.797C646.25034,118.41935,646.24564,120.69683,646.18462,122.93876ZM668.92287,183.763a10.39605,10.39605,0,0,1-3.41717-.57453l-.3849-.20935a20.88591,20.88591,0,0,1-8.33451-17.08114V56.651a22.04923,22.04923,0,0,1,1.611-8.45186c.40368-.85617.87495-1.79965,1.42132-2.77973,1.3894-2.26153,5.17645-6.26074,9.50235-6.26074,17.67258,0,28.53147,25.871,28.53147,69.16572C697.85238,152.74193,685.95613,183.763,668.92287,183.763Zm43.17365-55.182a106.09122,106.09122,0,0,1-2.98533,13.069,88.70722,88.70722,0,0,1-3.10643,8.94507c-.86462,2.11824-1.46826,3.28515-1.46826,3.28515s.6027-5.14065,1.50862-12.85169c.20372-1.91136.42621-3.982.66-6.172.2-2.183.41119-4.48515.629-6.86661.21686-2.37582.3267-4.8359.48066-7.32321.11829-2.4954.23657-4.92321.246-7.54922.05257-2.49211.0122-5.04631-.05069-7.5322-.07416-2.49188-.1211-4.95419-.28163-7.33306-.15772-2.37758-.27319-4.68769-.45249-6.87529-.18494-2.19253-.35955-4.26547-.521-6.17895-.38678-3.84889-.70878-7.05624-.93409-9.30145-.24784-2.2654-.38866-3.56-.38866-3.56s.59707,1.17066,1.43446,3.301A83.2461,83.2461,0,0,1,709.82,84.64184c.51539,1.89294,1.04393,3.9565,1.46919,6.16533.44968,2.20438.90874,4.54019,1.20352,6.98161.31919,2.43743.64588,4.96581.79045,7.55133.1887,2.58975.24878,5.20167.22437,7.87134-.03567,2.53706-.17086,5.26915-.42057,7.84223C712.87477,123.63592,712.4711,126.1528,712.09652,128.58108Z"/><path class="cls-1" d="M795.78989,129.33527l-.659.889c1.41193,2.17328,4.67138,8.35047,4.67138,19.02161,0,20.64758-11.6409,34.51714-22.512,34.51714-10.30971,0-21.32538-10.59791-21.32538-40.34135,0-11.501,2.56851-28.81592,8.20683-39.65322l.5858-1.12372,1.16221.50131a30.65332,30.65332,0,0,0,9.81,2.17422c11.24286,0,13.98064-5.05025,13.98064-8.50778,0-4.1875-5.62042-6.9375-10.35564-6.9375a25.39272,25.39272,0,0,0-10.827,2.48352l-1.32932.48253-.43372-1.34621c-2.116-6.58743-2.561-14.62529-2.561-20.20823,0-21.01464,7.929-34.06935,20.69076-34.06935,8.8208,0,13.48279,4.42166,13.48279,12.78715,0,11.363-10.5613,16.57514-13.4903,17.80213l-.22906,1.07772c.59894,1.15752,2.96843,4.84881,8.79076,4.84881a19.5672,19.5672,0,0,0,18.8376-20.14439c0-10.74248-9.01606-22.16-25.72827-22.16-20.34529,0-42.12691,16.01562-42.12691,39.85788a32.97941,32.97941,0,0,0,11.77608,25.80806l1.29364,1.104-1.35936,1.0214c-15.24958,11.44563-25.49357,30.55924-25.49357,47.56152,0,26.65578,21.90367,44.56211,42.36349,44.56211,20.60251,0,42.84039-15.581,42.84039-40.75347C815.85167,135.26462,805.20025,129.59437,795.78989,129.33527ZM770.0804,96.04042a20.24516,20.24516,0,0,1,8.6493-2.59279c2.75,0,6.60862.80237,6.60862,3.38126,0,2.86422-3.81228,4.79612-7.33647,4.79612-3.2388,0-5.98755-.71136-8.16553-3.73049L768.9797,96.625ZM750.50022,172.749a17.98071,17.98071,0,0,1-2.45022-2.30025,23.0234,23.0234,0,0,1-2.57977-3.5412,26.66459,26.66459,0,0,1-2.27561-4.66809,35.22007,35.22007,0,0,1-1.67854-5.53271,49.231,49.231,0,0,1-.92846-6.15677q-.07182-1.49882-.14457-3.01725l-.02816-.759c-.00657-.41834.01127-.58392.016-.88867l.05069-1.633a48.5958,48.5958,0,0,1,.85523-6.31976c.42433-2.03551.94817-4.00121,1.52834-5.87091.58486-1.8663,1.26078-3.62886,1.91981-5.28335.65245-1.65636,1.3603-3.1847,2.04091-4.57785a63.37724,63.37724,0,0,1,3.63966-6.54554c.97258-1.5281,1.61471-2.35048,1.61471-2.35048s-.22625,1.007-.62147,2.76929c-.41119,1.73252-.99793,4.20774-1.702,7.17793-.34359,1.46931-.71441,3.061-1.10776,4.74449-.3558,1.67537-.73131,3.44216-1.12,5.26974q-.26051,1.36382-.52853,2.76929-.23235,1.39867-.46845,2.82749c-.2591,1.899-.51633,3.8158-.61115,5.70932l-.0629,1.41122-.03.63157.016.75947q.01408,1.51748.0291,3.01936.1028,1.39216.15584,2.76741c.0338.91578.19245,1.8345.25441,2.73843.214,1.79613.444,3.5378.80548,5.15474a45.4962,45.4962,0,0,0,1.21385,4.52012,39.5943,39.5943,0,0,0,1.47764,3.70737,29.94477,29.94477,0,0,0,1.51519,2.72986,15.45344,15.45344,0,0,0,1.68042,2.22656A9.88909,9.88909,0,0,1,750.50022,172.749Z"/><path class="cls-1" d="M747.46359,392.30011c5.84741,0,9.50781,2.10822,13.04761,4.147,3.7085,2.1358,7.21118,4.15314,13.41455,4.15314,7.613,0,13.38159-3.46332,17.14575-10.29382a34.39442,34.39442,0,0,0,3.80127-12.474c-1.34644,2.86725-5.04,7.244-15.03735,7.244a28.48967,28.48967,0,0,1-15.6123-4.04431c-2.93848-1.59155-5.47607-2.96606-10.22559-2.96606-14.68164,0-21.40649,16.2334-21.73608,23.066.16528.09033.38721.1947.63379.29926C734.59372,398.80493,739.59494,392.30011,747.46359,392.30011Z"/><path class="cls-1" d="M166.93722,465.395c-17.511-19.039-32.634-35.48163-32.634-48.77722,0-17.09241,9.57251-27.71039,24.98193-27.71039,11.80664,0,24.019,7.31287,24.019,19.55054,0,11.01624-10.7959,15.74695-14.06079,16.92548l-.271,2.29932a27.69952,27.69952,0,0,0,13.71655,3.38422c9.06689,0,20.14258-7.50421,20.14258-16.26245,0-8.73059-2.8999-12.17224-2.9292-12.20593l-1.49-1.71655,2.187-.594c.37329-.10065,9.20532-2.5755,9.20532-10.71881,0-4.77063-3.498-9.11578-5.061-10.81909l-.44629.27234c-.5022,4.53033-5.00317,10.45294-11.83032,10.45294-2.95508,0-5.57251-1.53784-8.88623-3.4848-5.63745-3.31226-13.35815-7.84845-28.14307-7.84845-11.69287,0-23.719,4.98267-32.99512,13.67035C112.69211,400.94476,107.322,412.813,107.322,425.231c0,19.37366,17.32764,39.6131,35.67285,61.04083,18.61353,21.74146,37.86084,44.22314,37.86084,66.34454a34.434,34.434,0,0,1-8.28076,22.23425c-5.259,6.073-12.2229,9.556-19.10547,9.556-13.73828,0-24.49976-12.96832-24.49976-29.52368,0-14.07355,12.25464-24.81952,14.96216-27.02167a9.21426,9.21426,0,0,0-.12622-2.48779l-.05078-.02264c-.03955-.0174-4.46387-1.91687-12.88721-1.91687a28.53676,28.53676,0,0,0-20.94067,9.04248,31.14044,31.14044,0,0,0-8.41968,21.49988c0,15.304,8.7688,24.86359,16.125,30.18823,9.66431,6.99536,23.07715,11.00739,36.79956,11.00739,14.85522,0,29.55542-5.13379,40.33105-14.085,8.3772-6.959,18.36353-19.46112,18.36353-39.50165C213.12643,515.61432,188.58737,488.93427,166.93722,465.395Zm31.24512,76.11926-.0188.3302-.00317.059-.00781.05847-.1936,1.41376-1.10083,8.02881-1.6897-7.92578-.28809-1.35114a29.20745,29.20745,0,0,0-1.13037-3.53522,65.03926,65.03926,0,0,0-6.39233-11.83618c-2.80029-4.28552-6.44873-9.264-11.48486-15.67218l-.82788-1.044-2.56982-3.24133-3.52075-4.368-7.147-8.76392-.11792-.14465-7.26929-8.98157c-1.30933-1.61053-2.58545-3.22913-3.551-4.45911l-.14136-.17871c-1.09326-1.38226-2.22388-2.81158-3.29224-4.216-4.81372-6.23053-8.78076-11.7442-11.78491-16.37946-1.6748-2.58386-3.09766-4.956-4.22925-7.05042a48.59051,48.59051,0,0,1-2.75049-5.89136,16.661,16.661,0,0,1-1.10742-4.32867l-.00342-.03186-.002-.032a6.56424,6.56424,0,0,1,.01367-1.34839l.03394-.32361.81494-7.8609,1.96753,7.65424.09033.35168.0144.056.00977.057c.01294.05255.09009.25012.14624.39441l.10864.28241a17.52476,17.52476,0,0,0,1.8645,2.99182c.92285,1.257,2.18237,2.727,3.78882,4.546,1.418,1.59589,3.10913,3.428,5.31909,5.76239q1.62195,1.71835,3.39111,3.5791c3.10986,3.27655,6.63477,6.99023,10.23535,10.90833,2.90674,3.15668,5.30518,5.82739,7.54712,8.40387,2.7583,3.13043,5.4917,6.413,7.56445,8.92218,2.25317,2.79657,4.84668,6.03839,7.24707,9.29236,2.18433,2.9057,4.40234,6.06891,6.58472,9.39142,2.02588,3.08264,3.91064,6.19891,5.60205,9.262a96.71211,96.71211,0,0,1,4.30176,8.82507,61.7787,61.7787,0,0,1,2.7666,7.95685,38.24506,38.24506,0,0,1,1.179,6.50519A23.78754,23.78754,0,0,1,198.18234,541.51422Z"/><path class="cls-1" d="M1019.83176,465.395c-17.511-19.039-32.634-35.48163-32.634-48.77722,0-17.09241,9.572-27.71039,24.981-27.71039,11.80713,0,24.02,7.31287,24.02,19.55054,0,11.01624-10.79614,15.74695-14.061,16.92542l-.27075,2.29938a27.69288,27.69288,0,0,0,13.71558,3.38422c9.06738,0,20.14356-7.50421,20.14356-16.26245,0-8.73059-2.8999-12.17224-2.9292-12.20593l-1.49-1.71655,2.187-.594c.373-.10065,9.20435-2.5755,9.20435-10.71881,0-4.75122-3.49976-9.10889-5.06274-10.81787l-.44409.271c-.5022,4.5304-5.00293,10.45306-11.82983,10.45306-2.95508,0-5.57251-1.53784-8.88648-3.48486-5.6377-3.31219-13.35864-7.84839-28.14331-7.84839-11.69287,0-23.719,4.98267-32.99512,13.67035C965.58615,400.94476,960.216,412.813,960.216,425.231c0,19.37366,17.32764,39.6131,35.67261,61.04083,18.61353,21.74146,37.86084,44.22314,37.86084,66.34454a34.434,34.434,0,0,1-8.28076,22.23425c-5.259,6.073-12.22241,9.556-19.105,9.556-13.73852,0-24.50049-12.96832-24.50049-29.52368,0-14.07361,12.25513-24.81958,14.96289-27.02167a9.21328,9.21328,0,0,0-.12622-2.48767l-.051-.02283c-.03955-.01733-4.46362-1.91681-12.88721-1.91681a28.53676,28.53676,0,0,0-20.94067,9.04248,31.13955,31.13955,0,0,0-8.41992,21.49988c0,15.304,8.769,24.86359,16.12524,30.18823,9.66431,6.99536,23.0769,11.00739,36.79907,11.00739,14.85571,0,29.55615-5.13385,40.33179-14.085,8.37744-6.959,18.36377-19.46106,18.36377-39.50165C1066.021,515.61432,1041.4819,488.93427,1019.83176,465.395Zm31.46,76.16907-.02026.32855-.00366.05908-.0083.05853-.1958,1.373-1.11133,7.79083-1.67651-7.689-.28589-1.31152a28.30908,28.30908,0,0,0-1.10889-3.42346,61.36989,61.36989,0,0,0-6.27344-11.41748c-2.65918-3.99048-6.144-8.64124-11.303-15.085-1.46216-1.82544-2.95239-3.64258-4.53027-5.56647q-1.12976-1.37741-2.27319-2.77643l-5.79346-7.00928-1.324-1.602c-.77808-.95721-1.55249-1.90363-2.32617-2.84918-1.57788-1.92853-3.20972-3.92279-4.7749-5.89154-2.32861-2.89105-4.60327-5.80237-6.75562-8.64618a180.33134,180.33134,0,0,1-11.188-16.25494,77.416,77.416,0,0,1-3.81592-7.11761,38.872,38.872,0,0,1-2.2522-5.99982,16.22238,16.22238,0,0,1-.6521-4.31042,6.65564,6.65564,0,0,1,.07642-1.20825l.04736-.369.96436-7.58276,1.81836,7.42444.084.345a6.13452,6.13452,0,0,0,.24.82361,16.88349,16.88349,0,0,0,1.55,3.11,83.06046,83.06046,0,0,0,8.18091,10.329c2.28125,2.57831,4.8689,5.40186,7.60815,8.39124,1.71094,1.867,3.489,3.80719,5.30566,5.81091,1.991,2.18921,4.61938,5.09607,7.2815,8.15356,2.50537,2.8396,5.0144,5.82507,7.35181,8.62732,2.46069,3.02466,4.845,5.97589,7.08521,8.974,1.13916,1.49023,2.26367,3.021,3.33276,4.53754,1.01514,1.42468,2.10132,2.96545,3.137,4.53949,1.989,2.97766,3.843,5.9942,5.50562,8.95782a89.95676,89.95676,0,0,1,4.24023,8.56317,58.49144,58.49144,0,0,1,2.71313,7.74579,36.38448,36.38448,0,0,1,1.13745,6.34412A22.878,22.878,0,0,1,1051.29172,541.564Z"/><path class="cls-1" d="M705.74264,381.16c-1.62744,1.22656-6.46484,4.22119-14.90405,4.22119-2.68677,0-5.73755-1.23291-9.6001-2.79376-5.99268-2.42181-13.45093-5.43579-23.3252-5.43579-32.90845,0-59.68164,49.10071-59.68164,109.45361,0,27.812,5.72461,54.33563,16.11938,74.685,10.22192,20.01093,23.78284,32.22748,38.5636,34.39911l1.00256.178v9.53088c5,.98126,7.15588,6.46027,7.15588,14.51447,0,9.88483-5.28973,17.05933-12.72137,17.05933a9.62328,9.62328,0,0,1-10.06015-9.39795,7.87514,7.87514,0,0,1,1.43379-4.88586,8.0709,8.0709,0,0,0-4.66445-1.67743,7.54975,7.54975,0,0,0-7.5074,7.20178c0,8.932,8.50009,14.70349,21.6495,14.70349,9.39673,0,16.69084-1.79077,21.67619-5.32257,5.2356-3.7088,7.891-9.48795,7.891-17.011C678.77015,609.227,667.37668,604,663.9172,604h-1v-8.283l.93958-.222c20.10474-3.88776,30.51947-28.1662,30.51947-50.13959,0-6.4895-3.40836-9.64435-10.31216-9.6449a32.69193,32.69193,0,0,0-8.75923,1.38477c-.12427,30.73682-5.82114,45.68256-17.37852,45.68256-8.30664,0-13.62249-15.69226-16.6137-28.85638-4.08936-17.9967-6.34457-41.90338-6.34457-67.31622,0-27.54218,1.77425-50.80914,5.13387-67.2854,3.90894-19.16827,9.901-28.88739,17.81217-28.88739,9.40039,0,19.51717,7.83154,19.51717,25.02631,0,12.73792-6.87252,23.767-13.0107,25.10706l-.16954,1.03906c1.08447.58759,4.02412,1.74927,10.34,1.74927,8.19043,0,23.31809-10.728,23.31809-26.01465a19.48618,19.48618,0,0,0-3.5674-11.22784l-1.03565-1.296,1.43921-.82367c.48169-.277,11.60937-6.85754,12.11841-22.56775ZM625.44308,552.57721c-.01343-.01819-.33032-.45642-.83276-1.28571l-.1355-.22687c-.48145-.80682-1.14087-1.9118-1.87012-3.35535a89.14,89.14,0,0,1-5.47729-13.39954,124.00408,124.00408,0,0,1-4.59692-19.88135c-.61865-4.2594-1.0022-7.90857-1.20752-11.48712l-.17627-2.9433c-.03052-.66211-.04395-1.29047-.05713-1.91968-.00708-.33575-.01392-.67169-.02368-1.01038l-.0564-2.89978-.011-1.53638.02612-1.50293c.01245-.57593.02148-1.14624.03052-1.71637.022-1.37177.04468-2.79016.114-4.1911l.13037-2.426.18237-3.38892.49414-5.74835c.1167-1.24786.26733-2.477.41309-3.66559.0791-.6438.15747-1.28406.23-1.92072.521-3.97144,1.0647-7.41272,1.66528-10.54462.24316-1.42523.54419-2.82526.83521-4.1792l.13867-.64636c.311-1.5274.66919-2.98975,1.01563-4.40387l.02246-.09174c.63818-2.62518,1.35645-5.24725,2.13428-7.791.57861-1.95068,1.17236-3.64246,1.696-5.135l.26978-.7702c.4458-1.27386.87964-2.33942,1.19653-3.11749.0957-.23517.18311-.44983.26025-.64374.37427-.893.594-1.35535.603-1.37463l3.32886-6.99249-.63647,7.7182-.43994,5.33289-.188,2.527-.26416,3.54718-.15405,2.26776-.37915,5.5813-.2998,5.19751-.23389,4.05383c-.19043,3.7923-.34033,7.16034-.45776,10.286-.12256,3.35077-.22559,6.945-.31421,10.98663L622.363,483.533l-.02954,1.99188-.00928,2.61957-.01074,3.06091-.00806,1.42865.02905,1.335.03979,2.89783c.00513.34186.00757.68781.01,1.03339.00439.60767.00854,1.21436.02783,1.80414l.05518,1.43945.05054,1.31738c.03638,1.63422.09082,3.53778.22607,5.43982l.054,1.17487c.0647,1.45123.126,2.82208.25,4.18494.04956.655.08838,1.28564.127,1.91254.06982,1.13757.13574,2.2121.252,3.273.06982.70923.1228,1.3996.17554,2.0838.07715,1.005.15015,1.95428.26782,2.8844.30762,3.18066.65161,6.244,1.02686,9.14612.0708.51508.13574,1.0354.19971,1.54761.10815.86877.21045,1.68939.34082,2.47382l.13916.98871c.13135.94495.25562,1.83752.40308,2.67566.17212,1.18475.344,2.25995.51782,3.23834.124.81342.25488,1.53711.376,2.209l.09839.547c.57227,3.26062.99707,5.17651,1.00146,5.19556l1.48486,6.66992Z"/><path class="cls-1" d="M763.63791,409.46027c-27.92993,0-50.65259,41.75134-50.65259,93.07074s22.72266,93.07068,50.65259,93.07068S814.2905,553.85034,814.2905,502.531,791.56784,409.46027,763.63791,409.46027ZM735.47531,557.372c-.03-.03851-.30591-.39587-.75171-1.07965l-.15186-.23749c-.42725-.66663-1.01221-1.57971-1.646-2.7735a71.20875,71.20875,0,0,1-4.94189-11.2511,99.2282,99.2282,0,0,1-4.17993-16.83014c-.23413-1.35345-.40723-2.767-.57446-4.134l-.07886-.64056-.08911-.82574-.17407-1.617-.16138-2.151-.02783-.3725c-.13647-1.72418-.21753-3.4187-.241-5.03052l-.052-2.433-.01318-1.30566.02368-1.28473c.01147-.50177.02-.9975.02832-1.4931.01953-1.15118.03979-2.34155.09912-3.5191l.238-4.18152.04272-.74841.23657-2.60211.20776-2.27551c.10449-1.06335.24048-2.10651.37183-3.11523.0708-.54364.14136-1.08423.20605-1.62189.46606-3.35126.95532-6.26733,1.49878-8.94043.51025-2.60846,1.11963-5.26636,1.80859-7.88953.572-2.21442,1.21631-4.42993,1.91357-6.57922.53223-1.68756,1.07349-3.13934,1.55078-4.42029l.208-.55872c.40527-1.08905.7959-1.99292,1.08105-2.65289l.22119-.5152.00977-.02344.011-.02307.50244-1.07922,3.61182-7.75635-.91772,8.50665-.4856,4.49976-.49292,5.12067-.064.7384-.50952,5.88324c-.45312,5.63086-.80737,11.17963-1.052,16.48346-.1311,2.86169-.2395,5.896-.3313,9.27582l-.05566,2.94366-.03442,1.82361-.02393,4.79468-.00854,1.20782.02808,1.11285.03735,2.4563c.00513.28583.00757.57922.00977.87231.00415.50928.00781,1.01788.02954,1.50714l.05591,1.288.04541,1.045.02441.73743.05273,1.5932.14844,2.2691.03638.677c.07056,1.32532.13721,2.57715.26636,3.81616.04346.50653.0791.985.11475,1.46106.07544,1.01178.14673,1.96741.26465,2.90631.06348.56653.1145,1.11127.16528,1.65155.08276.88336.16089,1.71771.2793,2.53076.30664,2.67139.65161,5.24719,1.031,7.69879.06152.38568.11987.77393.17749,1.157.11743.78076.22827,1.51825.364,2.21838l.09033.53766c.14966.90027.29126,1.75067.4541,2.54065.15039.8703.31274,1.72137.52,2.72437.13721.75708.2832,1.47607.46606,2.29761.59424,2.73474,1.01147,4.34076,1.01587,4.35669L739.697,562.789Zm42.00317,3.39117c-3.752,13.58166-8.66724,21.0614-13.84058,21.0614-10.15479,0-21.11523-30.316-21.11523-79.29358,0-46.72894,11.12793-79.2937,21.11523-79.2937,9.69238,0,20.124,24.8136,20.124,79.2937C783.76193,531.86035,780.34494,550.38641,777.47848,560.76318Zm26.41992-50.32452c-.02271,1.59821-.104,3.29285-.24121,5.02673l-.18457,2.47089-.1499,1.39941-.115,1.06781-.08105.6615c-.16748,1.36737-.34033,2.78131-.57788,4.1543a99.14033,99.14033,0,0,1-4.17773,16.81311A71.26239,71.26239,0,0,1,793.41452,553.31c-.61816,1.16516-1.20312,2.07825-1.63037,2.74487l-.14429.22546c-.45337.6958-.72925,1.05316-.75928,1.09167l-4.22168,5.41705,1.73218-6.64594c.00439-.01593.42163-1.62195,1.0144-4.34973.18433-.82849.33032-1.54749.46069-2.26959.21411-1.038.37646-1.889.51831-2.71332.17139-.836.313-1.6864.46265-2.58667l.084-.50214c.14209-.73566.25293-1.47314.37036-2.25391.05762-.38306.116-.7713.17847-1.16357.37939-2.45062.72437-5.02643,1.02441-7.64923.124-.856.20215-1.69037.28491-2.57373.05078-.54028.10181-1.085.16284-1.63208.12036-.95837.19165-1.914.26709-2.92578.03564-.476.07129-.95453.1123-1.43463.13159-1.26544.19824-2.51727.2688-3.84259l.0354-.662.15161-2.32855.03589-1.10144.03882-1.17047.10156-2.34619c.02173-.48907.02563-.99579.02954-1.5033.00244-.29492.00464-.59.01025-.8822l.03662-2.438.02856-1.1709-.00879-1.1601-.02417-4.81732-.08984-4.7594c-.0918-3.36957-.2002-6.40393-.33105-9.26459-.24487-5.30475-.59912-10.85352-1.053-16.49145l-.50879-5.87469-.06519-.75183-.49341-5.12341-.48389-4.48358-.91772-8.50665,3.61182,7.75635.50244,1.07922.011.02307.00977.02344.22119.5152c.28516.66.67578,1.56384,1.08057,2.65125l.2085.56036c.47729,1.28094,1.01855,2.73273,1.5542,4.43115.69385,2.13843,1.33813,4.35394,1.91162,6.574.6875,2.61755,1.29688,5.27545,1.80908,7.89423.541,2.65881,1.03027,5.575,1.49341,8.90454.06812.563.13867,1.10339.20947,1.64679.13159,1.009.26758,2.05243.37109,3.10608l.2085,2.28534.23291,2.554.1106,1.92438.17334,3.04462c.05981,1.18665.08008,2.377.09961,3.5282.0083.49561.01685.99133.02832,1.487l.02344,1.24994-.0127,1.33044Z"/><path class="cls-1" d="M284.13449,377.15161c-32.908,0-59.68042,49.10071-59.68042,109.45361S251.22653,596.0589,284.13449,596.0589c32.90845,0,59.6814-49.10071,59.6814-109.45367S317.04294,377.15161,284.13449,377.15161ZM250.581,552.57727c-.01343-.01825-.33032-.45636-.833-1.28546l-.135-.2265c-.48169-.80688-1.14111-1.912-1.87061-3.356a89.19425,89.19425,0,0,1-5.47705-13.39954,123.96559,123.96559,0,0,1-4.59692-19.88141c-.61914-4.26135-1.00269-7.91058-1.20752-11.48718l-.17627-2.94318c-.03052-.65973-.0437-1.28571-.05688-1.9126-.00732-.33789-.0144-.67615-.02417-1.01709l-.0564-2.90015-.01074-1.53656.02612-1.50269c.01221-.57184.02124-1.13812.03027-1.70428.022-1.37573.04468-2.79828.11426-4.20325l.3125-5.8147.18311-2.13519.31128-3.61334c.11646-1.24792.26733-2.47717.41309-3.666.0791-.64368.15747-1.28375.23-1.92029.521-3.97168,1.0647-7.4129,1.665-10.54462.2439-1.42743.54517-2.82953.83643-4.18549l.13745-.64008c.31079-1.5271.66919-2.98914,1.01563-4.403l.02246-.09259c.63892-2.62659,1.35718-5.24866,2.13452-7.791.58008-1.95563,1.175-3.65063,1.7-5.14606l.26587-.75934c.4458-1.27368.87964-2.33923,1.19653-3.11731.0957-.23517.18311-.44983.26025-.64374.37451-.893.594-1.35535.603-1.37457l3.32886-6.99243-.63647,7.71808-.43994,5.33289-.365,4.90271-.08716,1.17151-.19629,2.89154-.33691,4.9574-.24243,4.2019-.2915,5.04962c-.19385,3.86975-.3396,7.1416-.45776,10.28595-.12231,3.34839-.2251,6.94269-.31421,10.98682l-.06519,4.36682-.019,1.278-.0127,3.71106-.00708,1.96936-.00806,1.42871.02905,1.335.03979,2.89789c.00513.34174.00757.68756.01,1.03308.00415.6076.0083,1.21429.02783,1.80408l.10571,2.75677c.03638,1.63483.09082,3.53864.22607,5.44031l.0542,1.18146c.0647,1.449.12573,2.81757.24951,4.17828.0498.657.08887,1.28979.12744,1.91876.06982,1.1355.1355,2.208.25146,3.267.06982.7099.12329,1.40131.176,2.08655.07715,1.004.15015,1.95227.26758,2.88141.30835,3.18829.65234,6.25146,1.02686,9.146.07056.51386.13525,1.03253.199,1.54327.1084.87042.21094,1.69257.34131,2.47852l.14038.99707c.13135.94189.25513,1.83148.4021,2.66711.17114,1.17822.343,2.2533.51782,3.23828.123.80756.25269,1.52588.373,2.19324l.10107.56317c.57251,3.26013.99731,5.17615,1.00171,5.19513l1.48486,6.67Zm51.43018,1.39264c-2.84692,10.75885-8.95459,28.80792-17.87671,28.80792-13.73682,0-25.78638-44.94043-25.78638-96.17261s12.04956-96.17279,25.78638-96.17279c8.92188,0,15.02979,18.04913,17.87671,28.808,4.92334,18.60748,7.63477,42.53137,7.63477,67.36475S306.93454,535.36243,302.0112,553.96991Zm12.95117-2.53357c.00439-.019.4292-1.935,1.00122-5.19244l.10059-.561c.12061-.66876.25049-1.38879.36841-2.16333q.27063-1.52921.51636-3.2301c.15405-.8786.27783-1.76819.40918-2.71008l.1355-.96552c.1355-.819.238-1.64264.34668-2.51477.06348-.50909.12793-1.02618.19946-1.54907.37329-2.88135.71729-5.94452,1.02124-9.09406.12207-.97058.19507-1.91888.27222-2.92285.05273-.68524.1062-1.37665.17456-2.07117.11743-1.0744.18335-2.14691.25293-3.28241.03857-.629.07764-1.26178.12549-1.89685.12573-1.38263.18677-2.75122.25146-4.2002l.05225-1.14862c.13721-1.93982.19189-3.84131.22729-5.44983l.04028-1.05646.06641-1.73041c.019-.58252.02319-1.18909.02759-1.79663.00244-.3457.00488-.69177.01-1.03534l.03955-2.8855.02954-1.384-.0083-1.38739-.00659-1.88892-.01318-3.811-.02075-1.38385-.06372-4.25476c-.08838-4.01685-.19116-7.61121-.31421-10.97821-.11792-3.142-.26367-6.41388-.458-10.29517l-.291-5.03882-.24341-4.21619-.33594-4.94312-.197-2.90063-.07886-1.05914-.37329-5.01715-.43921-5.32166-.63647-7.71722,3.32886,6.99139c.009.01929.22876.48163.59277,1.34961.0874.219.1748.43359.27051.6687.31689.77808.75073,1.84369,1.1958,3.11566l.26636.76013c.5249,1.49573,1.12012,3.191,1.70361,5.15851.77393,2.53088,1.49219,5.153,2.13159,7.78192l.022.09021c.34644,1.41388.70483,2.87592,1.01855,4.41638l.13428.62646c.2915,1.356.59277,2.75824.84155,4.21381.59546,3.10345,1.13916,6.54462,1.65723,10.49231.07544.66077.15381,1.30084.23291,1.94452.14575,1.18884.29663,2.41809.41211,3.65607l.31226,3.62329.17993,2.08954.1394,2.57971.17578,3.27454c.06982,1.412.09277,2.83575.11475,4.21265.009.565.01807,1.13025.03027,1.69537l.02588,1.47351-.01025,1.55359-.0564,2.9046c-.01.35425-.01709.6925-.02441,1.0304-.01318.62689-.02637,1.25287-.05591,1.89294l-.17749,2.96643c-.20459,3.57263-.58813,7.2218-1.20679,11.48059a124.01171,124.01171,0,0,1-4.59839,19.887,89.19974,89.19974,0,0,1-5.48193,13.40839c-.72339,1.43213-1.38281,2.53711-1.86426,3.34387l-.12964.21735c-.50854.83893-.82544,1.277-.83862,1.29523l-4.01538,5.53Z"/><path class="cls-1" d="M570.35055,589.55243c11.29248-7.90845,13.66309-17.70868,13.66309-24.53741,0-12.7879-10.04053-20.56628-13.209-22.70154l-.7002.77008c.51416,4.87762-1.09009,9.503-4.77393,13.7583-10.89478,12.58423-39.43042,20.71564-72.69775,20.71564-15.81958,0-31.75-2.99963-47.156-5.90051-12.63525-2.37909-25.693-4.83923-38.22375-5.49347l-1.33582-.07013v-154.303a28.26561,28.26561,0,0,1,12.09-23.82684,38.02764,38.02764,0,0,1,10.91-5.42731v-1.03711c-1-1.056-4.38745-4.34747-11.84253-4.34747-17.30762,0-27.72766,12.85754-27.83142,12.98743l-1.08,1.388-1.0925-1.38928c-.10278-.1286-10.73363-12.98614-28.04124-12.98614-7.44556,0-11.11229,3.283-12.11229,4.34839v1.03619a39.14849,39.14849,0,0,1,11.40991,5.42737c5.57324,4.0058,12.59009,11.39117,12.59009,23.82678V572.229l-1.027.38348a63.90441,63.90441,0,0,0-27.315,24.37384l.92526.61523a93.18976,93.18976,0,0,1,50.70311-15.03009c18.5249,0,36.79638,4.04346,56.155,8.3244,22.32031,4.93585,45.39367,10.03973,72.35168,10.03973C543.54111,600.93561,559.56515,597.10577,570.35055,589.55243Zm-176.5835-98.94366c-.01978,3.288-.04028,6.68787-.12427,9.98993-.06665,3.47717-.18433,7.07056-.35986,10.97656-.29419,6.70581-.7478,13.44257-1.312,19.48041-.26514,2.817-.5415,5.43726-.82178,7.789-.21313,1.85046-.44507,3.49817-.64941,4.95184l-.14746,1.05212c-.14746,1.13428-.311,2.11041-.44238,2.89478-.06128.36469-.11548.68878-.1582.97028l-.24927,1.3985-1.39722,7.80969-1.39331-7.8103-.24292-1.36108c-.04883-.31812-.103-.642-.16406-1.00653-.13159-.78448-.29517-1.76086-.44434-2.90674l-.14526-1.038c-.20459-1.45441-.43628-3.10291-.65039-4.96-.28027-2.35376-.55688-4.97394-.82153-7.78253-.56372-6.03583-1.01733-12.77258-1.31177-19.483-.17529-3.89752-.293-7.49091-.35962-10.984-.08447-3.30341-.105-6.71417-.12476-10.01251l-.00781-1.30969.00952-1.72131c.01733-3.1684.03516-6.44458.11694-9.62811.02808-1.81482.07813-3.68964.14868-5.55811l.03711-1.11676c.04639-1.41949.09473-2.88733.16919-4.31171.29175-6.696.74512-13.433,1.31079-19.47046.58008-6.22937,1.20044-10.94489,1.61865-13.80365.491-3.30847.84985-5.191.86475-5.26953l1.3916-7.26923,1.39258,7.2691c.01489.07849.374,1.96112.86426,5.26685.59106,4.03595,1.166,8.93854,1.61938,13.80725.56567,6.03607,1.01929,12.77307,1.31152,19.48193.07446,1.42273.1228,2.90173.16968,4.332l.03613,1.08954c.07007,1.85931.12036,3.73407.14917,5.56689.08081,3.1662.09888,6.4389.11621,9.60394l.00977,1.71375Z"/><path class="cls-1" d="M858.56637,582.19208l1.0166.48279c.28174.13385,28.42529,13.384,49.50879,13.384,23.86133,0,36.73657-15.445,36.73657-29.97717,0-16.41583-14.60083-20.973-22.71216-21.13336l-.79492.562a13.38856,13.38856,0,0,1,1.44482,6.24591c0,6.48773-3.54175,12.82452-9.97266,17.8432-5.165,4.03064-11.647,6.73877-16.30493,6.73877-6.19092,0-20.57129,0-20.57129-14.91821V493h22.15552A20.4313,20.4313,0,0,1,918.632,506h.23047c.71313,0,2.52-2.38675,2.52-6.24234,0-9.81995-8.21558-15.66008-8.29858-15.71873l-1.637-1.11626,1.637-1.13678c.08081-.05768,8.29858-5.8139,8.29858-15.59009,0-3.84668-1.79834-6.1958-2.52173-6.1958H918.632a20.4316,20.4316,0,0,1-19.55933,13H876.9172V411.11639l-.1145-.04962c.56714-8.06683,9.31433-22.88147,22.0011-22.88147,13.76,0,20.14117,13.03168,20.14117,21.839a27.29662,27.29662,0,0,1-5.28525,15.42944l.22652.51465c12.37915-.3327,21.59885-7.46844,21.59885-16.85852,0-9.05237-4.05531-11.965-4.22792-12.08459l-2.05-1.41992,2.25418-1.04382c12.50562-5.70428,11.679-15.02985,11.39235-16.81775-.05127-.0575-.10339-.11462-.15539-.17078-1.53784,1.94666-5.75421,3.23621-11.13507,3.23621a102.75712,102.75712,0,0,1-12.49612-1.44116c-6.94653-1.03894-14.81984-2.21643-21.4546-2.21643a60.33711,60.33711,0,0,0-37.68531,13.15326l-1.11988,1.01428-.94165-1.1814c-.10278-.1286-10.63074-12.98614-27.93811-12.98614-7.44629,0-11.01038,3.283-12.01038,4.34839v1.03619a38.02132,38.02132,0,0,1,10.91,5.42737,28.2654,28.2654,0,0,1,12.09,23.82678V561.42a28.26573,28.26573,0,0,1-12.09,23.8269,38.023,38.023,0,0,1-10.91,5.42737v1.03711c1,1.056,4.55432,4.34753,12.01038,4.34753,17.35718,0,27.81073-12.85638,27.914-12.98627Zm-2.17529-33.44165c-.04858-.318-.103-.64185-.16406-1.00635-.13159-.78448-.29492-1.7608-.44434-2.90662l-.145-1.03711c-.20459-1.45471-.43652-3.10345-.65063-4.96112-.28052-2.35583-.55713-4.97607-.82129-7.78259-.56421-6.03912-1.01782-12.77588-1.312-19.48291-.17529-3.89844-.293-7.49182-.35962-10.984-.08447-3.30292-.105-6.7132-.12451-10.01117l-.00806-1.311.00977-1.748c.01733-3.15948.0354-6.42657.1167-9.60126.02808-1.8147.07813-3.68951.14868-5.55817l.03662-1.10657c.04688-1.42285.09521-2.89417.16943-4.32172.292-6.69623.74536-13.43329,1.311-19.4707.58032-6.23181,1.20068-10.94629,1.6189-13.80371.49072-3.30847.84985-5.191.86475-5.26959l1.39258-7.26923,1.3916,7.26941c.01489.07855.37378,1.961.8645,5.2666.41821,2.85773,1.03809,7.57019,1.6189,13.80731.56592,6.04144,1.01953,12.77844,1.31152,19.48193.07446,1.42407.123,2.90448.16992,4.33612l.03589,1.08545c.07007,1.86194.12036,3.73676.14893,5.567.08105,3.16278.09912,6.43225.11646,9.59418l.00977,1.72333-.0083,1.35584c-.01978,3.28894-.04028,6.68994-.12427,9.993-.06689,3.48633-.18481,7.07965-.36011,10.97656-.29419,6.70886-.7478,13.44562-1.31152,19.48041-.26538,2.81934-.542,5.43958-.822,7.78894-.21313,1.8501-.44482,3.49744-.64941,4.95087l-.14722,1.05316c-.14771,1.13483-.31128,2.11139-.44287,2.89606-.061.3642-.11548.68793-.158.96906l-.249,1.39783-1.39331,7.80939-1.39722-7.80872Z"/><path class="cls-1" d="M566.9172,499.33057V400.51776l-.17493-.20544c3.43994-11.07025,14.17493-15.13153,17.17493-16.19019V383.624c-1-.87354-3.49854-3.28448-9.14478-3.28448-11.78027,0-19.38354,7.40582-21.44678,9.6756l-1.02649,1.15363-1.03766-1.15363c-2.06323-2.26978-9.5209-9.6756-21.30118-9.6756-5.63647,0-9.04312,2.40253-9.04312,3.28577v.50989c4,1.28595,18,6.82709,18,22.55865v92.63678c0,11.354-2.619,21.15186-7.65491,28.33435-4.9187,7.01489-11.80634,10.87817-19.31537,10.87817-15.01929,0-24.02972-14.65887-24.02972-39.21252V407.626c0-16.47223,14-22.18842,19-23.49323v-.50885c-1-.87354-3.76624-3.28442-9.413-3.28442-13.63037,0-21.98566,10.12848-22.06769,10.23077l-1.15457,1.38641-1.12929-1.38812c-.08057-.10071-8.35847-10.22906-21.98859-10.22906-5.637,0-8.24689,2.40253-9.24689,3.28577v.50751c4,1.30481,19,7.021,19,23.49323V498.5517c0,15.67261,2.46692,27.01025,8.28333,35.68018,8.11987,12.10352,22.38251,18.24054,42.6308,18.24054,20.75366,0,35.8602-5.636,44.7247-16.75134C563.46838,527.05389,566.9172,515.15045,566.9172,499.33057Zm-87.96167-33.7337c-.01123,2.396-.02271,4.8736-.08765,7.28363-.05,2.94482-.17187,5.85449-.28442,8.31055-.23682,5.08038-.6084,10.18616-1.075,14.76636-.37451,3.7157-.85229,7.43567-1.3457,10.47327-.12183.85522-.25952,1.60248-.36987,2.20288-.04932.26825-.09351.507-.12817.71472l-.21,1.07019-1.38306,7.024-1.39771-7.02112-.20483-1.02924c-.04272-.24786-.08765-.48706-.1377-.75592-.11206-.59967-.25146-1.34595-.37988-2.2265-.49731-3.01019-.98535-6.72888-1.37012-10.44434-.478-4.57007-.86353-9.67487-1.1145-14.76086-.11914-2.45306-.24878-5.35937-.30737-8.32477-.071-2.40625-.08936-4.89441-.10718-7.3006l-.00952-1.268.00537-1.0163c.01294-2.49567.02661-5.07636.09375-7.58508.052-2.64008.14648-5.36285.28857-8.31415.23877-5.07983.6106-10.1853,1.075-14.7627.37134-3.69623.84741-7.41577,1.34009-10.47211.12012-.84845.2561-1.59149.36548-2.18854.05029-.27374.09473-.51691.12964-.72815l.20874-1.07092,1.38086-7.06183,1.40015,7.058.2041,1.0304c.04272.25012.08789.49231.13843.76483.11133.59747.24951,1.341.37622,2.21686.35059,2.13733.876,5.71,1.36426,10.4436.47681,4.57281.8623,9.67731,1.1145,14.75995.15063,2.95746.25244,5.68.31177,8.32153.07349,2.49738.094,5.07666.114,7.571l.00806,1.00073Zm75.875,40.82349c-.12183.85522-.25952,1.60242-.36987,2.20288-.04932.26825-.09351.507-.12817.71472l-.20947,1.06927-1.38062,7.03632-1.40039-7.03241-.20483-1.02942c-.04248-.24609-.08716-.48383-.137-.75085-.1123-.60083-.2522-1.34851-.38086-2.23138-.498-3.01532-.98584-6.734-1.37012-10.44452-.47827-4.5744-.86377-9.67914-1.1145-14.7608-.11914-2.45386-.24878-5.36084-.30713-8.32483-.071-2.39465-.08936-4.871-.10693-7.26569l-.01-1.30273.00537-1.01648c.01294-2.49561.02661-5.07629.09375-7.58508.05176-2.634.14648-5.35687.28882-8.31409.23853-5.0802.61035-10.18567,1.075-14.76276.4751-4.73047.99072-8.30579,1.33984-10.47186.12012-.84863.2561-1.59174.36548-2.18884.05029-.27368.09473-.51685.12964-.728l.2085-1.06995,1.37866-7.074,1.40259,7.06927.20435,1.02991c.043.25226.08838.49591.1394.77026.11084.59625.24878,1.33838.375,2.212.35107,2.13971.87671,5.71436,1.36426,10.4436.47681,4.57153.8623,9.676,1.11475,14.75983.15015,2.95038.2522,5.673.31152,8.32153.07349,2.49744.094,5.07672.114,7.57111l.00806,1.00073-.00635,1.31854c-.01123,2.396-.02271,4.8736-.08765,7.28357-.05029,2.95764-.17187,5.86176-.28442,8.31073-.23682,5.08325-.6084,10.189-1.07471,14.76624C555.80221,499.66022,555.32419,503.38019,554.83053,506.42035Z"/></svg>